<svg xmlns="http://www.w3.org/2000/svg" width="19" height="15" viewBox="0 0 19 15">
    <g fill="#1B2C54" fill-rule="nonzero">
        <path d="M18.571 10L16.52 6.77V.83L15.683 0H2.888l-.835.83v5.94L0 10h18.571zm-3.723-8.34v4.146c-1.077-.277-2.937-.619-5.562-.619-2.626 0-4.486.342-5.562.619V1.66h11.124zM0 10.714v1.803h1.939V15h1.664v-2.483h11.365V15h1.664v-2.483h1.94v-1.803z"/>
        <path d="M8.571 3.869v-.832c0-.494-.8-.894-1.785-.894-.987 0-1.786.4-1.786.894v1.249s1.053-.238 1.777-.3c.652-.055 1.794-.117 1.794-.117zM13.571 4.286V3.037c0-.494-.8-.894-1.785-.894-.987 0-1.786.4-1.786.894v.832s1.142.062 1.794.118c.724.061 1.777.299 1.777.299z"/>
    </g>
</svg>
