<svg xmlns="http://www.w3.org/2000/svg" width="73" height="70" viewBox="0 0 73 70">
    <g fill="#37E1C6" fill-rule="nonzero">
        <path d="M67.043 29.081a2.957 2.957 0 0 0-2.957 2.957v2.979c-.005 7.769-3.034 15.071-8.531 20.561-5.493 5.487-12.792 8.508-20.554 8.508h-.018C18.945 64.076 5.905 51.02 5.914 34.983c.005-7.769 3.034-15.071 8.531-20.562C19.938 8.935 27.237 5.914 35 5.914h.017c4.1.002 8.077.85 11.821 2.518a2.957 2.957 0 1 0 2.407-5.402A34.779 34.779 0 0 0 35.02 0H35c-9.341 0-18.125 3.636-24.735 10.237C3.651 16.844.005 25.631 0 34.98c-.005 9.349 3.63 18.14 10.237 24.755C16.844 66.349 25.631 69.995 34.98 70H35c9.341 0 18.125-3.635 24.735-10.237C66.349 53.156 69.995 44.369 70 35.018v-2.98a2.957 2.957 0 0 0-2.957-2.957z"/>
        <path d="M72.147 2.884a2.84 2.84 0 0 0-4.118 0l-32.65 33.831-7.408-7.675a2.84 2.84 0 0 0-4.118 0 3.095 3.095 0 0 0 0 4.267l9.466 9.81c.569.588 1.314.883 2.06.883.745 0 1.49-.295 2.059-.884l34.71-35.965a3.095 3.095 0 0 0 0-4.267z"/>
    </g>
</svg>
