<svg xmlns="http://www.w3.org/2000/svg" width="15" height="22" viewBox="0 0 15 22">
    <path fill="#1C85DA" fill-rule="nonzero" d="M14.036 1.04c0-.58-.448-1.04-1.029-1.04H1.008C.428 0 0 .46 0 1.04V22h4.578v-3.463c0-.34.247-.619.586-.619h3.703c.34 0 .59.278.59.62V22h4.578V1.04zM6.17 14.871a.36.36 0 0 1-.36.36H3.645a.36.36 0 0 1-.36-.36v-2.167a.36.36 0 0 1 .36-.36h2.168c.199 0 .36.161.36.36v2.167zm0-4.779a.36.36 0 0 1-.36.36H3.645a.36.36 0 0 1-.36-.36V7.925a.36.36 0 0 1 .36-.36h2.168c.199 0 .36.161.36.36v2.167zm0-4.877a.36.36 0 0 1-.36.36H3.645a.36.36 0 0 1-.36-.36V3.047a.36.36 0 0 1 .36-.36h2.168c.199 0 .36.162.36.36v2.168zm4.58 9.656a.36.36 0 0 1-.36.36H8.223a.36.36 0 0 1-.36-.36v-2.167c0-.199.161-.36.36-.36h2.168a.36.36 0 0 1 .36.36v2.167zm0-4.779a.36.36 0 0 1-.36.36H8.223a.36.36 0 0 1-.36-.36V7.925c0-.199.161-.36.36-.36h2.168a.36.36 0 0 1 .36.36v2.167zm0-4.877a.36.36 0 0 1-.36.36H8.223a.36.36 0 0 1-.36-.36V3.047c0-.198.161-.36.36-.36h2.168a.36.36 0 0 1 .36.36v2.168z"/>
</svg>
