<svg xmlns="http://www.w3.org/2000/svg" width="11" height="15" viewBox="0 0 11 15">
    <path fill="#1B2C54" fill-rule="nonzero" d="M0 15h10.588V0H0v15zm6.516-1.25c0 .23-.183.417-.407.417h-1.63a.412.412 0 0 1-.407-.417v-1.667c0-.23.183-.416.408-.416h1.629c.224 0 .407.186.407.416v1.667zm0-3.333c0 .23-.183.416-.407.416h-1.63a.412.412 0 0 1-.407-.416V8.75c0-.23.183-.417.408-.417h1.629c.224 0 .407.187.407.417v1.667zm0-3.334c0 .23-.183.417-.407.417h-1.63a.412.412 0 0 1-.407-.417V5.417c0-.23.183-.417.408-.417h1.629c.224 0 .407.187.407.417v1.666zm3.258 6.667c0 .23-.183.417-.408.417H7.738a.412.412 0 0 1-.408-.417v-5c0-.23.183-.417.408-.417h1.628c.225 0 .408.187.408.417v5zm0-6.667c0 .23-.183.417-.408.417H7.738a.412.412 0 0 1-.408-.417V5.417c0-.23.183-.417.408-.417h1.628c.225 0 .408.187.408.417v1.666zM.814 1.25c0-.23.183-.417.408-.417h8.144c.225 0 .408.187.408.417v2.5c0 .23-.183.417-.408.417H7.33v-.834h1.63V1.667H1.628v1.666h4.887v.834H1.222a.412.412 0 0 1-.408-.417v-2.5zm0 4.167c0-.23.183-.417.408-.417H2.85c.225 0 .407.187.407.417v1.666c0 .23-.182.417-.407.417H1.22a.412.412 0 0 1-.407-.417V5.417zm0 3.333c0-.23.183-.417.408-.417H2.85c.225 0 .407.187.407.417v1.667c0 .23-.182.416-.407.416H1.22a.412.412 0 0 1-.407-.416V8.75zm0 3.333c0-.23.183-.416.408-.416H2.85c.225 0 .407.186.407.416v1.667c0 .23-.182.417-.407.417H1.22a.412.412 0 0 1-.407-.417v-1.667z"/>
</svg>
