<svg xmlns="http://www.w3.org/2000/svg" width="27" height="22" viewBox="0 0 27 22">
    <path fill="#929698" fill-rule="nonzero" d="M14 8a4 4 0 1 0 0 8 4 4 0 0 0 0-8zm10.3-3.875h-3.24c-.445 0-.926-.352-1.066-.783l-.838-2.56C19.015.352 18.536 0 18.09 0H8.91c-.445 0-.926.352-1.066.783l-.838 2.56c-.141.43-.62.782-1.066.782H2.7c-1.485 0-2.7 1.237-2.7 2.75V19.25C0 20.763 1.215 22 2.7 22h21.6c1.485 0 2.7-1.237 2.7-2.75V6.875c0-1.513-1.215-2.75-2.7-2.75zM14 19a7 7 0 1 1 0-14 7 7 0 0 1 0 14zm9-10a1 1 0 1 1 0-2 1 1 0 0 1 0 2z"/>
</svg>
