<svg xmlns="http://www.w3.org/2000/svg" width="20" height="15" viewBox="0 0 20 15">
    <path fill="#2C2C2C" fill-rule="nonzero" d="M5.164 5.243c.287 0 .53.1.732.301.2.201.3.445.3.732v2.067c0 .287-.1.53-.3.731-.201.201-.445.302-.732.302H1.72c-.287 0-.531-.1-.732-.302a.996.996 0 0 1-.301-.731V6.276c0-.287.1-.53.3-.732.202-.2.446-.301.733-.301h3.444zm0-5.243c.287 0 .53.1.732.301.2.201.3.445.3.732V3.1c0 .287-.1.53-.3.732-.201.2-.445.3-.732.3H1.72c-.287 0-.531-.1-.732-.3A.996.996 0 0 1 .687 3.1V1.033c0-.287.1-.53.3-.732C1.19.101 1.434 0 1.72 0h3.444zm0 10.86c.287 0 .53.101.732.302.2.2.3.445.3.732v2.066c0 .287-.1.531-.3.732-.201.2-.445.301-.732.301H1.72c-.287 0-.531-.1-.732-.301a.996.996 0 0 1-.301-.732v-2.066c0-.287.1-.531.3-.732a.996.996 0 0 1 .733-.302h3.444zm13.628-5.617c.288 0 .531.1.732.301.201.201.302.445.302.732v2.067c0 .287-.1.53-.302.731-.2.201-.444.302-.731.302H8.46a.996.996 0 0 1-.732-.302.996.996 0 0 1-.301-.731V6.276c0-.287.1-.53.3-.732.202-.2.446-.301.733-.301h10.331zm0 5.617c.288 0 .531.101.732.302.201.2.302.445.302.732v2.066c0 .287-.1.531-.302.732-.2.2-.444.301-.731.301H8.46a.996.996 0 0 1-.732-.301.996.996 0 0 1-.301-.732v-2.066c0-.287.1-.531.3-.732a.996.996 0 0 1 .733-.302h10.331zM19.524.301c.201.201.302.445.302.732V3.1c0 .287-.1.53-.302.731a.997.997 0 0 1-.731.302H8.46a.997.997 0 0 1-.732-.302.996.996 0 0 1-.301-.731V1.033c0-.287.1-.53.3-.732.202-.2.446-.301.733-.301h10.331c.288 0 .531.1.732.301z"/>
</svg>
