<svg xmlns="http://www.w3.org/2000/svg" width="42" height="42" viewBox="0 0 42 42">
    <g fill="none" fill-rule="evenodd">
        <circle cx="21" cy="21" r="21" fill="#FFF" fill-rule="nonzero"/>
        <path fill="#2C2C2C" fill-rule="nonzero" d="M25.729 23.773c-.898 0-1.705.377-2.278.98l-6.697-3.279c.023-.153.038-.31.038-.47 0-.157-.015-.31-.037-.46l6.688-3.242a3.134 3.134 0 0 0 2.286.989 3.146 3.146 0 1 0-3.147-3.147c0 .157.015.309.037.459l-6.686 3.243a3.134 3.134 0 0 0-2.286-.989 3.146 3.146 0 1 0 0 6.293c.897 0 1.704-.378 2.277-.98l6.697 3.279c-.023.153-.04.31-.04.47a3.146 3.146 0 1 0 6.294 0 3.145 3.145 0 0 0-3.146-3.146z"/>
    </g>
</svg>
