<svg xmlns="http://www.w3.org/2000/svg" width="14" height="11" viewBox="0 0 14 11">
    <path fill="#2C2C2C" fill-rule="nonzero" d="M12.75 11H1.25c-.315 0-.587-.104-.82-.309l3.968-3.968.274.199c.297.219.537.39.722.511.185.123.431.248.739.375.307.128.593.192.86.192h.015c.265 0 .552-.064.86-.192.306-.127.552-.252.737-.375.185-.122.426-.293.723-.511l.275-.198 3.966 3.967c-.232.205-.504.309-.82.309zM.79 4.227a270.27 270.27 0 0 1 2.706 1.859L0 9.582V3.547c.23.255.492.482.79.68zm12.429 0c.297-.204.557-.43.781-.68v6.035l-3.495-3.495c.745-.52 1.65-1.14 2.714-1.86zM12.749 0c.34 0 .632.122.88.367.247.245.371.54.371.883 0 .412-.128.805-.383 1.18a3.716 3.716 0 0 1-.953.96 7367.851 7367.851 0 0 0-3.773 2.623l-.215.155c-.17.122-.31.221-.422.297-.112.075-.247.16-.406.254a2.365 2.365 0 0 1-.45.21c-.14.048-.27.071-.39.071h-.016c-.12 0-.25-.023-.39-.07a2.37 2.37 0 0 1-.45-.211 7.958 7.958 0 0 1-.406-.254 16.479 16.479 0 0 1-.422-.297l-.215-.155-.117-.083a517.711 517.711 0 0 0-2.047-1.426c-.89-.617-1.424-.988-1.601-1.113a3.876 3.876 0 0 1-.914-.903C.143 2.105 0 1.75 0 1.422 0 1.016.108.677.324.406.54.136.85 0 1.25 0h11.5z"/>
</svg>
