<svg xmlns="http://www.w3.org/2000/svg" width="75" height="75" viewBox="0 0 75 75">
    <g fill="#FFA4A4" fill-rule="nonzero">
        <path d="M14.65 10.893a2.653 2.653 0 0 0-3.757 0 2.653 2.653 0 0 0 0 3.756 2.658 2.658 0 0 0 3.756 0 2.658 2.658 0 0 0 0-3.756zM40.944 37.188l8.747-8.747a2.657 2.657 0 0 0-3.757-3.757l-8.746 8.747-8.747-8.747a2.657 2.657 0 0 0-3.757 3.757l8.747 8.747-8.747 8.746a2.656 2.656 0 1 0 3.757 3.757l8.747-8.747 8.746 8.747a2.648 2.648 0 0 0 1.879.778 2.657 2.657 0 0 0 1.878-4.535l-8.747-8.747z"/>
        <path d="M37.188 0a37.228 37.228 0 0 0-17.06 4.147 2.656 2.656 0 0 0 2.445 4.717c4.547-2.357 9.464-3.552 14.614-3.552 17.576 0 31.876 14.3 31.876 31.875 0 17.576-14.3 31.876-31.876 31.876-17.575 0-31.874-14.3-31.874-31.876 0-5.148 1.194-10.064 3.55-14.611a2.656 2.656 0 1 0-4.716-2.445A37.22 37.22 0 0 0 0 37.187c0 20.506 16.682 37.188 37.188 37.188 20.505 0 37.187-16.682 37.187-37.188C74.375 16.683 57.693 0 37.187 0z"/>
    </g>
</svg>
