<svg xmlns="http://www.w3.org/2000/svg" width="19" height="16" viewBox="0 0 19 16">
    <path fill="#E86060" fill-rule="nonzero" d="M9.188 15.75c-.262 0-.514-.091-.71-.257a210.988 210.988 0 0 0-2.09-1.732l-.003-.002c-1.852-1.52-3.45-2.833-4.563-4.126C.58 8.188 0 6.817 0 5.32c0-1.454.518-2.796 1.458-3.779C2.408.547 3.714 0 5.133 0c1.06 0 2.032.323 2.887.96a5.79 5.79 0 0 1 1.168 1.174c.344-.459.735-.852 1.167-1.174A4.735 4.735 0 0 1 13.242 0c1.419 0 2.724.547 3.675 1.541.94.983 1.458 2.325 1.458 3.78 0 1.496-.579 2.867-1.822 4.312-1.113 1.293-2.711 2.606-4.562 4.125-.633.52-1.35 1.108-2.093 1.735a1.102 1.102 0 0 1-.71.257z"/>
</svg>
