<svg xmlns="http://www.w3.org/2000/svg" width="26" height="25" viewBox="0 0 26 25">
    <g fill="none" fill-rule="nonzero">
        <path fill="#E86060" d="M22 10.667l-4.125-4v-6h-2.75V4L11 0 0 10.667v.666h2.75V18h6.875v-4h2.75v4h6.875v-6.667H22z"/>
        <g transform="translate(7 6)">
            <circle cx="9.5" cy="9.5" r="9.5" fill="#FFF"/>
            <circle cx="9.5" cy="9.5" r="7.5" stroke="#E86060"/>
            <path fill="#E86060" d="M12.993 12.363c0-.252.003-.473 0-.69-.022-.935-.318-1.247-1.24-1.342a.734.734 0 0 0-.088-.007c-.272-.02-.593-.084-.782-.252-.35-.308-.482-.721-.25-1.194.178-.364.31-.75.478-1.121.396-.88.043-1.622-.528-2.245-.329-.36-.71-.522-1.085-.512-.375-.01-.757.151-1.086.512-.57.623-.924 1.366-.528 2.245.168.371.3.756.478 1.12.233.47.1.887-.25 1.195-.189.165-.51.228-.781.252-.032.004-.061.007-.09.007-.917.095-1.217.41-1.238 1.342-.004.22-.004.445 0 .7v.21H13c-.007-.077-.007-.15-.007-.22z"/>
        </g>
    </g>
</svg>
