<svg xmlns="http://www.w3.org/2000/svg" width="134" height="142" viewBox="0 0 134 142">
    <g fill="none" fill-rule="evenodd" transform="translate(-.25)">
        <ellipse cx="68.5" cy="65" fill="#CCEFFC" rx="65.5" ry="65"/>
        <path fill="#FFF" d="M28.174 139.747V99.22l-4.924.845L28.174 87V57l-3.595 1.817L22.25 58v-1.87l11.77-9.63.252-13.5-1.022-2.065 1.022-.257 9.208-.791 1.77 1.613-.8 2.5v6.5l16.8-10.613 39 25.504-.918 3.426h-4.055V87l-.865 1.78 4.92 11.285h-4.055V140.5z"/>
        <path fill="#1C85DA" d="M99.21 58.712l-36.594-24.33c-.419-.278-.898-.399-1.366-.38a2.293 2.293 0 0 0-1.367.38l-36.591 24.33a2.356 2.356 0 0 0-.66 3.24 2.32 2.32 0 0 0 3.218.663l35.4-23.537 35.402 23.537a2.317 2.317 0 0 0 3.216-.663 2.355 2.355 0 0 0-.658-3.24"/>
        <path fill="#000" d="M61.25 34.09a.96.96 0 0 1 .53.16l35.435 23.588a1.361 1.361 0 0 0 1.892-.39 1.383 1.383 0 0 0-.39-1.907L62.09 31.16a1.351 1.351 0 0 0-.8-.223.888.888 0 0 1-.077 0 1.35 1.35 0 0 0-.801.222L23.78 55.541a1.37 1.37 0 0 0-.581.873 1.369 1.369 0 0 0 1.06 1.621c.36.074.722.004 1.026-.197L60.721 34.25a.953.953 0 0 1 .529-.16zM97.96 60a3.25 3.25 0 0 1-1.804-.547L61.25 36.217 26.34 59.453a3.239 3.239 0 0 1-2.467.478 3.25 3.25 0 0 1-2.08-1.417 3.311 3.311 0 0 1-.475-2.488 3.28 3.28 0 0 1 1.406-2.1l36.629-24.383a3.253 3.253 0 0 1 1.897-.542 3.24 3.24 0 0 1 1.897.542l36.629 24.383a3.332 3.332 0 0 1 .932 4.588A3.277 3.277 0 0 1 97.96 60z"/>
        <path fill="#000" d="M95.28 88H28.22a.96.96 0 0 1-.97-.948V58.118a.96.96 0 0 1 .97-.948.96.96 0 0 1 .97.948v27.987h65.12V57.948c0-.524.433-.948.97-.948a.96.96 0 0 1 .97.948v29.104a.96.96 0 0 1-.97.948M95.28 141H28.22a.968.968 0 0 1-.97-.965V100.2c0-.533.435-.965.97-.965.535 0 .97.432.97.965v38.872h65.12V99.965c0-.533.433-.965.97-.965.535 0 .97.432.97.965v40.07a.968.968 0 0 1-.97.965"/>
        <path fill="#000" d="M24.58 99.22h73.34l-4.194-10.44H28.773L24.58 99.22zM99.295 101H23.203a.974.974 0 0 1-.782-.383.831.831 0 0 1-.109-.82l4.908-12.22c.139-.347.496-.577.894-.577h66.274c.395 0 .752.23.891.578l4.91 12.22a.845.845 0 0 1-.108.819.979.979 0 0 1-.785.383z"/>
        <path fill="#1C85DA" d="M38.25 113h16v26h-16z"/>
        <path fill="#000" d="M54.233 141c-.56 0-1.017-.43-1.017-.963v-26.11H39.284v26.11c0 .532-.454.963-1.017.963-.56 0-1.017-.43-1.017-.963V112.98c0-.532.474-.981 1.034-.981h15.92c.578 0 1.046.447 1.046.996v27.04c0 .533-.453.964-1.017.964M66.221 120.142H84.28v-12.284H66.22v12.284zM85.264 122H65.236c-.544 0-.986-.416-.986-.929v-14.142c0-.513.442-.929.986-.929h20.028c.544 0 .986.416.986.929v14.142c0 .513-.442.929-.986.929z"/>
        <path fill="#000" d="M85.259 112H65.24a.996.996 0 0 1-.991-1c0-.553.445-1 .991-1H85.26c.546 0 .991.447.991 1 0 .552-.445 1-.991 1M61.25 45.87A5.137 5.137 0 0 0 56.12 51a5.137 5.137 0 0 0 5.13 5.13A5.137 5.137 0 0 0 66.38 51c0-2.829-2.302-5.13-5.13-5.13zm0 12.13c-3.86 0-7-3.14-7-7s3.14-7 7-7 7 3.14 7 7-3.14 7-7 7z"/>
        <path fill="#000" d="M61.25 58c-.551 0-1-.418-1-.935v-12.13c0-.517.449-.935 1-.935.551 0 1 .418 1 .935v12.13c0 .517-.449.935-1 .935"/>
        <path fill="#000" d="M67.312 52H55.188c-.517 0-.938-.448-.938-1 0-.553.42-1 .938-1h12.124c.517 0 .938.447.938 1 0 .552-.42 1-.938 1M41.008 76.095h8.484v-9.19h-8.484v9.19zM50.371 78H40.129c-.485 0-.879-.426-.879-.952V65.952c0-.526.394-.952.88-.952h10.24c.488 0 .88.426.88.952v11.096c0 .526-.392.952-.88.952zM75.008 76.095h8.484v-9.19h-8.484v9.19zM84.371 78H74.129c-.485 0-.879-.426-.879-.952V65.952c0-.526.394-.952.879-.952h10.242c.485 0 .879.426.879.952v11.096c0 .526-.394.952-.879.952z"/>
        <path fill="#000" d="M50.37 71H40.13c-.486 0-.88-.448-.88-1 0-.553.394-1 .88-1h10.24c.488 0 .88.447.88 1 0 .552-.392 1-.88 1M84.371 71H74.129c-.485 0-.879-.448-.879-1 0-.553.394-1 .879-1h10.242c.485 0 .879.447.879 1 0 .552-.394 1-.879 1"/>
        <g fill="#000">
            <path d="M110.25 142c-.554 0-1-.43-1-.961V94.96c0-.53.446-.961 1-.961.551 0 1 .43 1 .961v46.078c0 .53-.449.961-1 .961"/>
            <path d="M110.407 104a.841.841 0 0 1-.598-.247l-3.311-3.312a.843.843 0 1 1 1.191-1.194l3.313 3.312a.842.842 0 0 1-.595 1.441M110.2 112a.926.926 0 0 1-.54-.175.993.993 0 0 1-.24-1.36l4.096-6.046a.936.936 0 0 1 1.325-.244.994.994 0 0 1 .24 1.36l-4.097 6.045a.945.945 0 0 1-.784.42"/>
            <path d="M109.749 76.976c-1.038.736-3.132 5.865-4.875 15.73-1.605 9.102-2.076 17.505-1.175 20.91 1.444 5.44 5.069 7.075 6.053 7.425 1-.353 4.6-1.973 6.046-7.425.904-3.405.43-11.808-1.175-20.91-1.743-9.865-3.833-14.994-4.874-15.73zm0 46.024c-.083 0-.169-.01-.251-.03-.234-.059-5.776-1.51-7.732-8.884-1.991-7.504 2.15-33.073 6.154-37.997.411-.506.85-.837 1.31-.99.13-.064.282-.099.442-.099h.157c.156 0 .308.035.442.098.456.154.895.485 1.306.99 4.004 4.925 8.148 30.494 6.158 37.998-1.957 7.375-7.501 8.825-7.735 8.884-.083.02-.166.03-.251.03z"/>
        </g>
        <path fill="#000" d="M33.25 47.084V33.916c0-.506.455-.916 1.022-.916h9.956c.564 0 1.022.41 1.022.916v6.273c0 .506-.458.917-1.022.917-.566 0-1.021-.41-1.021-.917v-5.357h-7.914v12.252c0 .506-.458.916-1.021.916-.567 0-1.022-.41-1.022-.916z"/>
        <path fill="#000" d="M34.87 30.678c-.469 0-.85.361-.85.805v.034c0 .444.381.805.85.805h8.76c.469 0 .85-.361.85-.805v-.034c0-.444-.381-.805-.85-.805h-8.76zm0 3.322c-1.444 0-2.62-1.114-2.62-2.483v-.034c0-1.37 1.176-2.483 2.62-2.483h8.76c1.444 0 2.62 1.114 2.62 2.483v.034c0 1.37-1.176 2.483-2.62 2.483h-8.76z"/>
        <path fill="#1B2C54" d="M1.453 139h128.594c.665 0 1.203.672 1.203 1.5s-.538 1.5-1.203 1.5H1.453c-.664 0-1.203-.672-1.203-1.5s.539-1.5 1.203-1.5z"/>
    </g>
</svg>
