<svg xmlns="http://www.w3.org/2000/svg" width="152" height="127" viewBox="0 0 152 127">
    <g fill="none" fill-rule="evenodd">
        <ellipse cx="66.5" cy="60" fill="#CCEFFC" rx="60.5" ry="60"/>
        <path fill="#FFF" d="M16.896 125.5L16.97 86h-4.038l8.818-28.947h23.156v-9.718l-4.904 2.883-2.028-.876.025-2.007L66.132 28.86 94 47.335l.757 2.007-1.757.876-5-2.883v9.718h22.4l8.407 28.447-2.778.5v39.5z"/>
        <path fill="#000" d="M66.156 69.825c-2.895 0-5.25 2.36-5.25 5.26s2.355 5.258 5.25 5.258 5.25-2.359 5.25-5.259c0-2.9-2.355-5.259-5.25-5.259zm0 12.435c-3.95 0-7.163-3.22-7.163-7.176s3.213-7.175 7.163-7.175 7.163 3.219 7.163 7.175c0 3.957-3.213 7.176-7.163 7.176z"/>
        <path fill="#000" d="M66.156 82.26a.958.958 0 0 1-.956-.958V68.867a.958.958 0 1 1 1.913 0v12.435c0 .529-.429.958-.957.958"/>
        <path fill="#000" d="M72.315 76.042H59.949a.957.957 0 0 1 0-1.916h12.366a.957.957 0 0 1 0 1.916"/>
        <path fill="#000" d="M45.032 126.877a.958.958 0 0 1-.956-.958V56.01a.958.958 0 1 1 1.913 0v68.952H85.98V56.008c0-.529.429-.958.956-.958.528 0 .957.43.957.958v69.911c0 .53-.43.958-.957.958H45.032z"/>
        <path fill="#1C85DA" d="M58 101h16v24H58z"/>
        <path fill="#000" d="M73.562 126.877a.957.957 0 0 1-.957-.958v-24.404H59.358v23.944a.957.957 0 1 1-1.913 0v-24.902c0-.53.429-.958.957-.958h15.16c.528 0 .957.429.957.958v25.362c0 .53-.429.958-.957.958M85.988 57.948V56h24.341c.424 0 .798.28.922.692l8.708 29.051a.985.985 0 0 1-.149.863.961.961 0 0 1-.773.394H93.26a.967.967 0 0 1-.963-.974c0-.538.43-.974.963-.974h24.48l-8.123-27.104H85.988zm-40.432 0H22.383l-8.122 27.104h24.277c.532 0 .963.436.963.974a.968.968 0 0 1-.963.974H12.963a.959.959 0 0 1-.773-.394.982.982 0 0 1-.148-.863l8.706-29.051a.964.964 0 0 1 .921-.692h23.887v1.948z"/>
        <path fill="#000" d="M16.971 127a.974.974 0 0 1-.971-.976V86.976c0-.54.435-.976.971-.976.537 0 .972.436.972.976v38.073h96.942l.172-38.078a.975.975 0 0 1 .972-.971c.54.002.974.44.971.98l-.178 39.049a.971.971 0 0 1-.97.971h-98.88z"/>
        <path fill="#1C85DA" d="M27 94h10v17H27zM94 94h10v17H94z"/>
        <path fill="#1B2C54" d="M1.203 124h128.594c.665 0 1.203.672 1.203 1.5s-.538 1.5-1.203 1.5H1.203C.54 127 0 126.328 0 125.5s.539-1.5 1.203-1.5z"/>
        <g fill="#000">
            <path d="M144 127c-.554 0-1-.43-1-.961V79.96c0-.53.446-.961 1-.961.551 0 1 .43 1 .961v46.078c0 .53-.449.961-1 .961"/>
            <path d="M144.157 89a.841.841 0 0 1-.598-.247l-3.311-3.312a.843.843 0 1 1 1.191-1.194l3.313 3.312a.842.842 0 0 1-.595 1.441M143.95 97a.926.926 0 0 1-.54-.175.993.993 0 0 1-.24-1.36l4.096-6.046a.936.936 0 0 1 1.325-.244.994.994 0 0 1 .24 1.36l-4.097 6.045a.945.945 0 0 1-.784.42"/>
            <path d="M143.499 61.976c-1.038.736-3.132 5.865-4.875 15.73-1.605 9.102-2.076 17.505-1.175 20.91 1.444 5.44 5.069 7.075 6.053 7.425 1-.353 4.6-1.973 6.046-7.425.904-3.405.43-11.808-1.175-20.91-1.743-9.865-3.833-14.994-4.874-15.73zm0 46.024c-.083 0-.169-.01-.251-.03-.234-.059-5.776-1.51-7.732-8.884-1.991-7.504 2.15-33.073 6.154-37.997.411-.506.85-.837 1.31-.99.13-.064.282-.099.442-.099h.157c.156 0 .308.035.442.098.456.154.895.485 1.306.99 4.004 4.925 8.148 30.494 6.158 37.998-1.957 7.375-7.501 8.825-7.735 8.884-.083.02-.166.03-.251.03z"/>
        </g>
        <path fill="#000" d="M27.757 110.042h8.486V94.958h-8.486v15.084zM37.121 112H26.88c-.485 0-.879-.438-.879-.98V93.98c0-.542.394-.98.879-.98H37.12c.486 0 .879.438.879.98v17.04c0 .542-.393.98-.879.98zM94.757 110.042h8.486V94.958h-8.486v15.084zm9.365 1.958H93.878c-.484 0-.878-.438-.878-.98V93.98c0-.542.394-.98.878-.98h10.244c.484 0 .878.438.878.98v17.04c0 .542-.394.98-.878.98z"/>
        <g>
            <path fill="#1C85DA" d="M94.102 50.156L67.414 32.25a1.66 1.66 0 0 0-.996-.28 1.66 1.66 0 0 0-.997.28L38.734 50.156a1.744 1.744 0 0 0-.48 2.384c.513.79 1.569 1.01 2.346.488l25.817-17.321 25.818 17.321a1.682 1.682 0 0 0 2.346-.488 1.742 1.742 0 0 0-.479-2.384"/>
            <path fill="#000" d="M66.417 31.737c.187 0 .374.055.537.164l25.818 17.321a.715.715 0 0 0 .996-.207.73.73 0 0 0 .103-.55.726.726 0 0 0-.306-.463L66.877 30.097a.71.71 0 0 0-.421-.117.882.882 0 0 1-.077 0 .7.7 0 0 0-.422.118L39.27 48.002a.724.724 0 0 0-.306.464.734.734 0 0 0 .102.549.713.713 0 0 0 .457.311c.19.04.382.003.54-.104l25.818-17.321a.963.963 0 0 1 .536-.164zM93.16 51.322a2.617 2.617 0 0 1-1.461-.447l-25.28-16.962-25.282 16.962a2.613 2.613 0 0 1-2.004.39c-.7-.144-1.3-.557-1.691-1.16-.81-1.247-.471-2.932.756-3.755l26.687-17.905a2.65 2.65 0 0 1 1.533-.444 2.623 2.623 0 0 1 1.534.444L94.637 46.35c1.227.823 1.566 2.508.757 3.756a2.639 2.639 0 0 1-1.692 1.16c-.181.038-.362.056-.543.056z"/>
            <path fill="#000" d="M66.52 41.902c-2.948 0-5.347 2.437-5.347 5.433s2.399 5.433 5.347 5.433c2.948 0 5.346-2.437 5.346-5.433s-2.398-5.433-5.346-5.433zm0 12.846c-4.023 0-7.295-3.325-7.295-7.413s3.272-7.413 7.295-7.413c4.022 0 7.294 3.325 7.294 7.413s-3.272 7.413-7.294 7.413z"/>
            <path fill="#000" d="M66.52 54.748a.982.982 0 0 1-.974-.99V40.912c0-.547.436-.99.974-.99s.974.443.974.99v12.846c0 .547-.436.99-.974.99"/>
            <path fill="#000" d="M72.792 48.325H60.199a.982.982 0 0 1-.974-.99c0-.547.437-.99.974-.99h12.593c.538 0 .974.443.974.99 0 .547-.436.99-.974.99M44 56v-9.009c0-.547.43-.991.96-.991.531 0 .961.444.961.991V56H44zm42.079 0v-9.009c0-.547.43-.991.96-.991s.961.444.961.991V56h-1.921z"/>
        </g>
    </g>
</svg>
