<svg xmlns="http://www.w3.org/2000/svg" width="78" height="76" viewBox="0 0 78 76">
    <g fill="#C4C6C7" fill-rule="nonzero">
        <path d="M74.964 33.764a3.858 3.858 0 0 0-.452-5.674L41.638 2.444 39 0l-2.638 2.444L3.488 28.09a3.858 3.858 0 0 0-.452 5.674 3.884 3.884 0 0 0 5.207.432L39 10.555l30.756 23.641a3.886 3.886 0 0 0 5.208-.432z"/>
        <path d="M76.7 61.803c-.719 0-1.3.578-1.3 1.29v1.291h-1.3v-1.29c0-.713-.581-1.291-1.3-1.291-.719 0-1.3.578-1.3 1.29v1.291h-2.6V35.882L39 13 9.1 35.882v28.502H6.5v-1.29c0-.713-.581-1.291-1.3-1.291-.719 0-1.3.578-1.3 1.29v1.291H2.6v-1.29c0-.713-.581-1.291-1.3-1.291-.719 0-1.3.578-1.3 1.29V74.71C0 75.422.581 76 1.3 76c.719 0 1.3-.578 1.3-1.29v-1.291h1.3v1.29c0 .713.581 1.291 1.3 1.291.719 0 1.3-.578 1.3-1.29v-1.291h2.6V76h33.8V52.768h15.6V76h10.4v-2.581h2.6v1.29c0 .713.581 1.291 1.3 1.291.719 0 1.3-.578 1.3-1.29v-1.291h1.3v1.29c0 .713.581 1.291 1.3 1.291.719 0 1.3-.578 1.3-1.29V63.092c0-.712-.581-1.29-1.3-1.29zM3.9 70.837H2.6v-3.872h1.3v3.872zm5.2 0H6.5v-3.872h2.6v3.872zM26 65.675h-6.5v-5.163H26v5.163zm0-7.744h-6.5v-5.163H26v5.163zm9.1 7.744h-6.5v-5.163h6.5v5.163zm0-7.744h-6.5v-5.163h6.5v5.163zm0-12.907H19.5v-5.163h15.6v5.163zm0-7.744H19.5v-2.581h15.6v2.581zm23.4 7.744H42.9v-2.581h15.6v2.581zm0-5.163H42.9V34.7h15.6v5.162zm13 30.976h-2.6v-3.872h2.6v3.872zm3.9 0h-1.3v-3.872h1.3v3.872z"/>
    </g>
</svg>
