<svg xmlns="http://www.w3.org/2000/svg" width="163" height="154" viewBox="0 0 163 154">
    <g fill="none" fill-rule="evenodd">
        <ellipse cx="86" cy="76.5" fill="#CCEFFC" rx="77" ry="76.5"/>
        <path fill="#FFF" d="M22.962 153V70.08H22l24-28.82h52l5-3.243L141.877 64l-.796 2.065-2.085.837L135.961 65v87z"/>
        <path fill="#1C85DA" d="M65.04 66.712l36.594-24.33c.419-.278.897-.399 1.366-.38.469-.019.947.102 1.366.38l36.593 24.33a2.355 2.355 0 0 1 .659 3.24 2.319 2.319 0 0 1-3.217.663L103 47.078 67.598 70.615a2.319 2.319 0 0 1-3.217-.663 2.355 2.355 0 0 1 .659-3.24"/>
        <path fill="#000" d="M154 153c-.552 0-1-.432-1-.966v-46.068c0-.534.448-.966 1-.966s1 .432 1 .966v46.068c0 .534-.448.966-1 .966"/>
        <path fill="#000" d="M154.153 115a.844.844 0 0 1-.598-.248l-3.307-3.306a.847.847 0 0 1 1.197-1.198l3.307 3.307a.846.846 0 0 1-.599 1.445M153.955 122a.934.934 0 0 1-.545-.175.997.997 0 0 1-.239-1.365l4.09-6.039a.94.94 0 0 1 1.329-.245c.433.309.54.92.239 1.364l-4.09 6.039a.947.947 0 0 1-.784.421"/>
        <path fill="#000" d="M154 88.99c-.824.675-2.807 5.039-4.581 15.725-1.51 9.096-1.954 17.494-1.105 20.898 1.36 5.447 4.743 7.067 5.686 7.42.943-.353 4.326-1.973 5.686-7.42.85-3.404.406-11.802-1.105-20.898-1.774-10.686-3.757-15.05-4.581-15.725zm0 46.01a.924.924 0 0 1-.236-.03c-.222-.059-5.438-1.51-7.279-8.886-1.873-7.503 2.024-33.07 5.792-37.994.387-.506.8-.838 1.232-.991a.925.925 0 0 1 .417-.099h.148c.15 0 .291.035.417.099.432.153.845.485 1.232.991 3.768 4.924 7.665 30.49 5.792 37.994-1.841 7.376-7.057 8.827-7.279 8.885A.922.922 0 0 1 154 135z"/>
        <g fill="#000">
            <path d="M8 153c-.552 0-1-.426-1-.95v-22.1c0-.525.448-.95 1-.95s1 .425 1 .95v22.1c0 .524-.448.95-1 .95"/>
            <path d="M8.063 135a.931.931 0 0 1-.66-.273l-2.126-2.12a.943.943 0 0 1-.005-1.33.935.935 0 0 1 1.326-.004l2.125 2.12a.943.943 0 0 1 .005 1.33.933.933 0 0 1-.665.277M7.848 139a.86.86 0 0 1-.473-.141.817.817 0 0 1-.23-1.15l2.303-3.343a.86.86 0 0 1 1.177-.225c.389.256.492.77.23 1.15l-2.303 3.343a.853.853 0 0 1-.704.366"/>
            <path d="M8.5 125.953c-3.67 0-6.655 3.161-6.655 7.047 0 3.885 2.986 7.047 6.655 7.047 3.67 0 6.655-3.162 6.655-7.047 0-3.886-2.985-7.047-6.655-7.047zM8.5 142c-4.687 0-8.5-4.038-8.5-9 0-4.963 3.813-9 8.5-9 4.687 0 8.5 4.037 8.5 9 0 4.962-3.813 9-8.5 9z"/>
        </g>
        <path fill="#000" d="M65.531 63.541a1.385 1.385 0 0 0-.387 1.907 1.36 1.36 0 0 0 1.89.39l35.437-23.589a.953.953 0 0 1 1.058 0l35.436 23.59a1.36 1.36 0 0 0 1.891-.391 1.385 1.385 0 0 0-.387-1.907l-36.63-24.383a1.357 1.357 0 0 0-.8-.222.882.882 0 0 1-.077 0 1.34 1.34 0 0 0-.801.222L65.53 63.541zM66.288 68a3.277 3.277 0 0 1-2.746-1.486 3.332 3.332 0 0 1 .932-4.588l36.63-24.382A3.231 3.231 0 0 1 103 37a3.233 3.233 0 0 1 1.896.543l36.63 24.382a3.332 3.332 0 0 1 .932 4.588 3.271 3.271 0 0 1-4.55.94L103 44.216 68.092 67.453a3.246 3.246 0 0 1-1.804.547z"/>
        <path fill="#000" d="M136.03 154H68.97a.967.967 0 0 1-.97-.964V65.964c0-.532.434-.964.97-.964.535 0 .97.432.97.964v86.108h65.12V66.473c0-.532.435-.964.97-.964.536 0 .97.432.97.964v86.563a.967.967 0 0 1-.97.964M102 51.87A5.136 5.136 0 0 0 96.87 57c0 2.829 2.301 5.13 5.13 5.13 2.83 0 5.13-2.301 5.13-5.13a5.136 5.136 0 0 0-5.13-5.13zM102 64c-3.86 0-7-3.14-7-7s3.14-7 7-7 7 3.14 7 7-3.14 7-7 7z"/>
        <path fill="#000" d="M102 64c-.552 0-1-.418-1-.935v-12.13c0-.517.448-.935 1-.935s1 .418 1 .935v12.13c0 .517-.448.935-1 .935"/>
        <path fill="#000" d="M108.062 58H95.938c-.518 0-.938-.448-.938-1s.42-1 .938-1h12.124c.518 0 .938.448.938 1s-.42 1-.938 1M114.87 98.062h10.26V78.938h-10.26v19.124zM126.066 100h-12.13c-.516 0-.935-.434-.935-.97V77.97c0-.536.419-.97.935-.97h12.13c.516 0 .935.434.935.97v21.06c0 .536-.42.97-.935.97z"/>
        <path fill="#000" d="M126.065 89h-12.13c-.516 0-.935-.448-.935-1s.419-1 .935-1h12.13c.516 0 .935.448.935 1s-.42 1-.935 1M96.87 98.062h10.26V78.938H96.87v19.124zM108.066 100h-12.13c-.516 0-.935-.434-.935-.97V77.97c0-.536.42-.97.935-.97h12.13c.516 0 .935.434.935.97v21.06c0 .536-.419.97-.935.97z"/>
        <path fill="#000" d="M108.065 89h-12.13c-.516 0-.935-.448-.935-1s.42-1 .935-1h12.13c.516 0 .935.448.935 1s-.419 1-.935 1M113.87 130.062h10.26v-19.124h-10.26v19.124zM125.066 132h-12.13c-.516 0-.935-.434-.935-.97v-21.06c0-.536.419-.97.935-.97h12.13c.516 0 .935.434.935.97v21.06c0 .536-.42.97-.935.97z"/>
        <path fill="#000" d="M125.065 121h-12.13c-.516 0-.935-.448-.935-1s.419-1 .935-1h12.13c.516 0 .935.448.935 1s-.42 1-.935 1M96.87 130.062h10.26v-19.124H96.87v19.124zM108.066 132h-12.13c-.516 0-.935-.434-.935-.97v-21.06c0-.536.419-.97.935-.97h12.13c.516 0 .935.434.935.97v21.06c0 .536-.419.97-.935.97z"/>
        <path fill="#000" d="M108.065 121h-12.13c-.516 0-.935-.448-.935-1s.419-1 .935-1h12.13c.516 0 .935.448.935 1s-.419 1-.935 1M80.87 98.062h10.26V78.938H80.87v19.124zM92.066 100h-12.13c-.516 0-.935-.434-.935-.97V77.97c0-.536.419-.97.935-.97h12.13c.516 0 .935.434.935.97v21.06c0 .536-.419.97-.935.97z"/>
        <path fill="#000" d="M92.065 89h-12.13c-.516 0-.935-.448-.935-1s.419-1 .935-1h12.13c.516 0 .935.448.935 1s-.419 1-.935 1M80.87 130.062h10.26v-19.124H80.87v19.124zM92.066 132h-12.13c-.516 0-.935-.434-.935-.97v-21.06c0-.536.419-.97.935-.97h12.13c.516 0 .935.434.935.97v21.06c0 .536-.42.97-.935.97z"/>
        <path fill="#000" d="M92.065 121h-12.13c-.516 0-.935-.448-.935-1s.419-1 .935-1h12.13c.516 0 .935.448.935 1s-.42 1-.935 1M20.962 71a.962.962 0 0 1-.728-1.59l25.095-29.077a.962.962 0 0 1 .728-.333h50.981a.962.962 0 0 1 0 1.924h-50.54L23.063 69.076H68.35a.962.962 0 0 1 0 1.924H20.962z"/>
        <path fill="#000" d="M69.038 153H22.962a.964.964 0 0 1-.962-.967V69.967c0-.534.43-.967.962-.967.53 0 .961.433.961.967v81.1h45.115c.532 0 .962.432.962.966s-.43.967-.962.967"/>
        <path fill="#1C85DA" d="M35 118h21v34H35z"/>
        <path fill="#000" d="M56 153c-.552 0-1-.436-1-.973v-33.08H36v33.08a.987.987 0 0 1-1 .973c-.552 0-1-.436-1-.973v-34.054a.987.987 0 0 1 1-.973h21c.552 0 1 .436 1 .973v34.054a.987.987 0 0 1-1 .973M32.926 90.145h28.148v-11.29H32.926v11.29zM62.037 92H31.963c-.532 0-.963-.415-.963-.928V77.928c0-.513.431-.928.963-.928h30.074c.532 0 .963.415.963.928v13.144c0 .513-.431.928-.963.928z"/>
        <path fill="#000" d="M62.037 82H31.963c-.532 0-.963-.448-.963-1s.431-1 .963-1h30.074c.532 0 .963.448.963 1s-.431 1-.963 1"/>
        <path fill="#000" d="M47 92c-.552 0-1-.405-1-.905v-10.19c0-.5.448-.905 1-.905s1 .405 1 .905v10.19c0 .5-.448.905-1 .905"/>
        <path fill="#1B2C54" d="M18.203 151h128.594c.665 0 1.203.672 1.203 1.5s-.538 1.5-1.203 1.5H18.203c-.664 0-1.203-.672-1.203-1.5s.539-1.5 1.203-1.5z"/>
    </g>
</svg>
