<svg xmlns="http://www.w3.org/2000/svg" width="115" height="115" viewBox="0 0 115 115">
    <g fill="none" fill-rule="evenodd" transform="translate(.25)">
        <ellipse cx="57" cy="56.5" fill="#CCEFFC" rx="57" ry="56.5"/>
        <path fill="#FFF" d="M23.165 112V74h-4.96l4.96-13.168h12.98v-9.475L31.418 54l-2.459-.738.958-1.905 26.932-17.33 28.032 17.33L83.922 54 81 53.262l-3.33-1.905v9.475h12.06L95.072 74H90.03v39.5H23.165z"/>
        <path fill="#000" d="M22.97 114a.968.968 0 0 1-.97-.965V75.2c0-.533.435-.965.97-.965.535 0 .97.432.97.965v36.872h65.12V74.965c0-.533.433-.965.97-.965.535 0 .97.432.97.965v38.07a.968.968 0 0 1-.97.965H22.97z"/>
        <path fill="#000" d="M19.36 73.093h74.28l-4.248-11.186H23.607l-4.248 11.186zM95.033 75H17.965a.968.968 0 0 1-.792-.41.933.933 0 0 1-.11-.878l4.97-13.093A.966.966 0 0 1 22.94 60h67.124c.4 0 .762.247.903.62l4.973 13.092a.948.948 0 0 1-.11.878.973.973 0 0 1-.795.41z"/>
        <path fill="#1C85DA" d="M35 86h15v26H35z"/>
        <path fill="#000" d="M50.04 114c-.53 0-.96-.43-.96-.963v-26.11H35.92v26.11a.96.96 0 1 1-1.92 0V85.98c0-.532.447-.981.977-.981h15.035c.546 0 .988.447.988.996v27.04a.96.96 0 0 1-.96.964M60.971 94.142H79.03V81.858H60.97v12.284zM80.014 96H59.986c-.544 0-.986-.416-.986-.929V80.929c0-.513.442-.929.986-.929h20.028c.544 0 .986.416.986.929v14.142c0 .513-.442.929-.986.929z"/>
        <path fill="#000" d="M80.009 85H59.99A.996.996 0 0 1 59 84c0-.553.445-1 .991-1H80.01c.546 0 .991.447.991 1 0 .552-.445 1-.991 1"/>
        <path fill="#1C85DA" d="M84.134 54.085L57.898 37.087a1.675 1.675 0 0 0-.979-.266 1.675 1.675 0 0 0-.98.266L29.704 54.085a1.62 1.62 0 0 0-.472 2.264 1.69 1.69 0 0 0 2.307.463l25.38-16.444 25.38 16.444a1.689 1.689 0 0 0 2.306-.463 1.62 1.62 0 0 0-.47-2.264"/>
        <path fill="#000" d="M56.919 36.548a.97.97 0 0 1 .528.156l25.38 16.444a.715.715 0 0 0 .53.1.704.704 0 0 0 .45-.296.688.688 0 0 0-.2-.962L57.37 34.991a.717.717 0 0 0-.413-.11.898.898 0 0 1-.076 0 .706.706 0 0 0-.414.11l-26.235 17a.687.687 0 0 0-.301.44.677.677 0 0 0 .1.52.701.701 0 0 0 .45.296.712.712 0 0 0 .53-.099l25.38-16.444a.97.97 0 0 1 .528-.156zm26.288 18.594a2.638 2.638 0 0 1-1.436-.425L56.919 38.614 32.066 54.717a2.643 2.643 0 0 1-1.97.372 2.606 2.606 0 0 1-1.663-1.102 2.548 2.548 0 0 1 .744-3.566L55.41 33.423c.448-.29.975-.433 1.508-.422a2.645 2.645 0 0 1 1.507.422L84.66 50.42a2.548 2.548 0 0 1 .744 3.566 2.597 2.597 0 0 1-1.664 1.102 2.703 2.703 0 0 1-.533.053z"/>
        <path fill="#000" d="M57.02 46.198c-2.898 0-5.256 2.315-5.256 5.159s2.358 5.158 5.255 5.158c2.899 0 5.256-2.314 5.256-5.158 0-2.844-2.357-5.159-5.256-5.159zm0 12.197c-3.955 0-7.171-3.157-7.171-7.038 0-3.881 3.216-7.038 7.17-7.038 3.954 0 7.171 3.157 7.171 7.038 0 3.88-3.217 7.038-7.17 7.038z"/>
        <path fill="#000" d="M57.02 58.395a.949.949 0 0 1-.958-.94V45.259c0-.52.429-.94.957-.94.53 0 .958.42.958.94v12.196c0 .519-.429.94-.958.94"/>
        <path fill="#000" d="M63.185 52.296H50.806a.949.949 0 0 1-.957-.94c0-.518.428-.94.957-.94h12.379c.529 0 .958.422.958.94 0 .52-.43.94-.958.94"/>
        <path fill="#000" d="M35.873 61.88a.949.949 0 0 1-.958-.94v-9.497c0-.52.43-.94.958-.94.529 0 .958.42.958.94V60h40.034v-8.557c0-.52.43-.94.958-.94a.95.95 0 0 1 .957.94v9.497a.95.95 0 0 1-.957.94h-41.95z"/>
        <path fill="#1B2C54" d="M17.203 112h78.594c.665 0 1.203.672 1.203 1.5s-.538 1.5-1.203 1.5H17.203c-.664 0-1.203-.672-1.203-1.5s.539-1.5 1.203-1.5z"/>
    </g>
</svg>
