<svg xmlns="http://www.w3.org/2000/svg" width="101" height="93" viewBox="0 0 101 93">
    <g fill="none" fill-rule="evenodd">
        <ellipse cx="44.5" cy="44" fill="#CCEFFC" rx="44.5" ry="44"/>
        <g fill="#000">
            <path d="M92 92c-.552 0-1-.426-1-.95v-22.1c0-.525.448-.95 1-.95s1 .425 1 .95v22.1c0 .524-.448.95-1 .95"/>
            <path d="M92.063 74a.931.931 0 0 1-.66-.273l-2.126-2.12a.943.943 0 0 1-.005-1.33.935.935 0 0 1 1.326-.004l2.125 2.12a.943.943 0 0 1 .005 1.33.933.933 0 0 1-.665.277M91.848 78a.86.86 0 0 1-.473-.141.817.817 0 0 1-.23-1.15l2.303-3.343a.86.86 0 0 1 1.177-.225c.389.256.492.77.23 1.15l-2.303 3.343a.853.853 0 0 1-.704.366"/>
            <path d="M92.5 64.953c-3.67 0-6.655 3.161-6.655 7.047 0 3.885 2.986 7.047 6.655 7.047 3.67 0 6.655-3.162 6.655-7.047 0-3.886-2.985-7.047-6.655-7.047zM92.5 81c-4.687 0-8.5-4.038-8.5-9 0-4.963 3.813-9 8.5-9 4.687 0 8.5 4.037 8.5 9 0 4.962-3.813 9-8.5 9z"/>
        </g>
        <path fill="#FFF" d="M16.422 50.83L44.36 33 73 51.223l-1.115 2.656-6.398-3.554V90H22.98V50.325l-4.883 3.119L16 52.75z"/>
        <path fill="#1C85DA" d="M72.24 53.043l-26.742-16.78a1.75 1.75 0 0 0-.998-.262 1.75 1.75 0 0 0-.999.263l-26.74 16.779c-.78.489-.996 1.494-.482 2.234s1.572.946 2.351.458L44.5 39.502l25.869 16.233c.778.488 1.838.283 2.35-.458.517-.74.3-1.745-.479-2.234"/>
        <path fill="#000" d="M44.5 34.686c.188 0 .376.053.539.161l25.89 17.082c.16.105.352.141.542.103a.718.718 0 0 0 .254-1.306L44.961 33.068a.721.721 0 0 0-.422-.115.9.9 0 0 1-.077 0 .71.71 0 0 0-.423.116L17.277 50.726a.714.714 0 0 0-.307.457.714.714 0 0 0 .56.849c.19.038.383.002.542-.103l25.89-17.082a.977.977 0 0 1 .538-.161zM71.318 54c-.517 0-1.025-.15-1.466-.442L44.5 36.832 19.148 53.558a2.657 2.657 0 0 1-2.01.386 2.656 2.656 0 0 1-1.696-1.144 2.676 2.676 0 0 1 .758-3.704L42.963 31.44A2.69 2.69 0 0 1 44.5 31a2.662 2.662 0 0 1 1.538.438L72.8 49.096a2.676 2.676 0 0 1 .76 3.704c-.391.595-.994 1.001-1.697 1.144a2.71 2.71 0 0 1-.544.056z"/>
        <path fill="#000" d="M44 46.87A5.137 5.137 0 0 0 38.87 52c0 2.829 2.301 5.13 5.13 5.13 2.83 0 5.13-2.301 5.13-5.13A5.136 5.136 0 0 0 44 46.87zM44 59c-3.86 0-7-3.14-7-7s3.14-7 7-7 7 3.14 7 7-3.14 7-7 7z"/>
        <path fill="#000" d="M44 59c-.552 0-1-.418-1-.935v-12.13c0-.517.448-.935 1-.935s1 .418 1 .935v12.13c0 .517-.448.935-1 .935"/>
        <path fill="#000" d="M50.062 53H37.938c-.518 0-.938-.447-.938-1 0-.552.42-1 .938-1h12.124c.518 0 .938.448.938 1 0 .553-.42 1-.938 1"/>
        <path fill="#000" d="M65.018 92H21.982a.974.974 0 0 1-.982-.965v-40.07c0-.533.44-.965.982-.965.543 0 .983.432.983.965V90.07h41.07V50.965c0-.533.441-.965.983-.965.541 0 .982.432.982.965v40.07c0 .533-.44.965-.982.965"/>
        <path fill="#1C85DA" d="M37 65h15v25H37z"/>
        <path fill="#000" d="M52.048 92c-.526 0-.953-.44-.953-.984V65.967h-13.19v24.577c0 .543-.427.984-.953.984-.525 0-.952-.44-.952-.984v-25.56c0-.544.427-.984.952-.984h15.096c.526 0 .952.44.952.984v26.032c0 .544-.426.984-.952.984"/>
        <path fill="#1B2C54" d="M4.203 90h78.594c.665 0 1.203.672 1.203 1.5s-.538 1.5-1.203 1.5H4.203C3.54 93 3 92.328 3 91.5S3.539 90 4.203 90z"/>
    </g>
</svg>
