<svg xmlns="http://www.w3.org/2000/svg" width="19" height="19" viewBox="0 0 19 19">
    <g fill="#E86060" fill-rule="nonzero">
        <path d="M7.644 11H1.356a.355.355 0 0 0-.356.355v5.037c0 .197.159.356.356.356h2.788v1.896a.355.355 0 1 0 .712 0v-1.896h2.788A.355.355 0 0 0 8 16.392v-5.036A.355.355 0 0 0 7.644 11zm-.356 5.037H1.712V11.71h5.576v4.326z"/>
        <path d="M4.44 14.482a.743.743 0 0 1-.373-.107L4 14.66c.085.055.23.099.381.106V15h.22v-.25c.258-.049.399-.235.399-.453 0-.22-.108-.355-.375-.459-.19-.078-.269-.13-.269-.21 0-.07.047-.138.193-.138.162 0 .265.056.323.083l.065-.276a.757.757 0 0 0-.325-.082V13h-.22v.232c-.24.052-.379.221-.379.437 0 .237.164.36.404.448.165.062.237.12.237.213 0 .1-.087.152-.214.152zM17.543 6.64H1.425c-.192 0-.347.147-.347.327v3.256c0 .18.155.326.347.326h3.158c.192 0 .346-.146.346-.326V8.922h4.786v2.239H8.126c-.192 0-.347.145-.347.326v2.94c0 .038.01.074.024.108a.308.308 0 0 0-.024.11c0 .18.155.327.347.327h3.87c.192 0 .347-.146.347-.327v-4.096h3.755v4.095c0 .18.155.327.347.327h1.098c.191 0 .346-.147.346-.327V6.967c0-.18-.155-.326-.346-.326zM18.985 5.977c-.001-.022-.008-.043-.014-.064-.005-.022-.009-.043-.018-.062-.001-.004-.001-.007-.003-.01l-2.426-4.519c-.008-.014-.022-.023-.031-.036a.258.258 0 0 0-.047-.055c-.016-.015-.036-.024-.053-.035-.02-.01-.037-.023-.058-.03-.024-.009-.05-.01-.075-.014-.016-.002-.03-.009-.047-.009h-.75V.327c0-.18-.156-.327-.347-.327h-2.253a.336.336 0 0 0-.347.327v.816H2.753c-.018 0-.034.007-.05.01-.025.004-.049.005-.072.013-.021.008-.039.02-.058.032-.019.01-.038.02-.054.034-.019.016-.031.036-.046.056-.01.013-.023.022-.03.037L.074 5.843c-.001.003 0 .006-.002.009-.01.02-.013.04-.018.062-.005.021-.013.042-.014.064l-.002.009c0 .016.008.03.01.045.004.024.006.048.015.07.008.02.02.036.032.053.012.019.022.037.038.053.017.017.038.03.058.042.014.01.025.022.04.03l.01.001a.362.362 0 0 0 .142.032H18.64a.36.36 0 0 0 .12-.023l.023-.007.014-.005c.015-.007.024-.02.037-.029.022-.013.042-.025.059-.043.015-.016.025-.033.036-.05.012-.019.025-.035.033-.056.009-.021.011-.045.015-.068.002-.015.01-.03.01-.045-.001-.004-.003-.006-.003-.01zm-6.988-2.874H7.029c-.192 0-.347-.147-.347-.327 0-.18.155-.327.347-.327h4.968c.191 0 .346.146.346.327 0 .18-.155.327-.346.327z"/>
    </g>
</svg>
