<svg xmlns="http://www.w3.org/2000/svg" width="12" height="19" viewBox="0 0 12 19">
    <path fill="#FFF" fill-rule="nonzero" d="M10.634.004L8.12 0C5.296 0 3.471 1.816 3.471 4.628v2.134H.944a.39.39 0 0 0-.395.383v3.092a.39.39 0 0 0 .395.383H3.47v7.801a.39.39 0 0 0 .395.384h3.298a.39.39 0 0 0 .395-.384v-7.8h2.955a.39.39 0 0 0 .395-.384l.002-3.092c0-.101-.042-.199-.116-.27a.402.402 0 0 0-.28-.113H7.56v-1.81c0-.869.214-1.31 1.381-1.31h1.693a.39.39 0 0 0 .395-.384V.388a.39.39 0 0 0-.394-.384z"/>
</svg>
