<svg xmlns="http://www.w3.org/2000/svg" width="124" height="40" viewBox="0 0 124 40">
    <g fill="#FFF" fill-rule="nonzero">
        <path d="M18.933 37.63C8.543 37.63.118 29.207.118 18.815.118 8.424 8.542 0 18.933 0 29.325 0 37.75 8.424 37.75 18.815c-.01 10.387-8.429 18.805-18.816 18.815zm0-36.03C9.426 1.6 1.718 9.308 1.718 18.815c0 9.508 7.708 17.215 17.215 17.215 9.508 0 17.216-7.707 17.216-17.215C36.139 9.312 28.437 1.61 18.933 1.6z"/>
        <path d="M18.933 31.855c-7.193 0-13.024-5.831-13.024-13.025 0-7.193 5.831-13.024 13.024-13.024 7.194 0 13.025 5.831 13.025 13.024-.008 7.19-5.835 13.017-13.025 13.025zm0-24.45c-6.311 0-11.428 5.117-11.428 11.43 0 6.311 5.117 11.428 11.428 11.428 6.312 0 11.429-5.117 11.429-11.429A11.429 11.429 0 0 0 18.933 7.39v.016z"/>
        <path d="M18.933 25.619v-1.6a5.204 5.204 0 1 0-5.219-5.204h-1.603a6.808 6.808 0 1 1 6.807 6.804h.015z"/>
        <path d="M12.126 1.825h1.6v17.006h-1.6zM31.048 32.266l1.348-1.347 7.44 7.444-1.348 1.346zM51.144 10v7.756c.858-.874 1.83-1.311 2.916-1.311 1.251 0 2.293.459 3.125 1.377.832.912 1.248 2.048 1.248 3.41 0 1.405-.419 2.567-1.257 3.485-.833.911-1.884 1.367-3.154 1.367-1.074 0-2.033-.406-2.878-1.217v.955H49V10h2.144zm5.098 11.326c0-.875-.242-1.587-.724-2.136-.49-.562-1.103-.843-1.84-.843-.787 0-1.429.271-1.924.815-.49.537-.734 1.236-.734 2.098 0 .887.241 1.596.724 2.126.483.544 1.118.815 1.906.815.743 0 1.36-.271 1.848-.815.496-.55.744-1.236.744-2.06zM64.749 10v7.756c.858-.874 1.83-1.311 2.916-1.311 1.251 0 2.293.459 3.125 1.377.833.912 1.249 2.048 1.249 3.41 0 1.405-.42 2.567-1.258 3.485-.832.911-1.884 1.367-3.154 1.367-1.074 0-2.033-.406-2.878-1.217v.955h-2.144V10h2.144zm5.098 11.326c0-.875-.241-1.587-.724-2.136-.49-.562-1.102-.843-1.84-.843-.787 0-1.428.271-1.924.815-.49.537-.734 1.236-.734 2.098 0 .887.242 1.596.725 2.126.482.544 1.118.815 1.905.815.743 0 1.36-.271 1.849-.815.495-.55.743-1.236.743-2.06zm5.01-1.059h4.25v1.836h-4.25v-1.836zm14.568 1.452c0-1.074-.25-1.919-.748-2.534-.498-.615-1.186-.923-2.063-.923-.902 0-1.608.298-2.12.895-.511.596-.767 1.416-.767 2.459 0 1.062.275 1.91.824 2.543.55.634 1.276.951 2.178.951.85 0 1.513-.298 1.986-.895.474-.596.71-1.428.71-2.496zM82.575 30V17.513h1.133v1.555c.324-.6.747-1.06 1.267-1.382a3.27 3.27 0 0 1 1.754-.482c1.188 0 2.145.41 2.873 1.232.727.82 1.09 1.909 1.09 3.264 0 1.362-.355 2.45-1.067 3.265-.711.815-1.658 1.222-2.84 1.222-.679 0-1.28-.16-1.8-.482-.52-.322-.947-.795-1.277-1.42V30h-1.134zm13.633-10.82c.432-.718.856-1.227 1.272-1.527.416-.3.9-.45 1.453-.45.165 0 .332.016.5.048.169.03.336.075.5.13l-.38 1.087a3.838 3.838 0 0 0-.396-.093 2.197 2.197 0 0 0-.395-.038c-.705 0-1.307.325-1.806.974-.499.65-.748 1.459-.748 2.427v4.084h-1.172v-8.31h1.172v1.668zm10.756 5.93c.928 0 1.714-.33 2.359-.988.644-.66.967-1.466.967-2.422 0-.968-.32-1.78-.963-2.435-.641-.656-1.429-.984-2.363-.984-.927 0-1.712.328-2.353.984-.642.655-.963 1.467-.963 2.435 0 .956.321 1.763.963 2.422.641.659 1.426.988 2.353.988zm-.038 1.077a4.4 4.4 0 0 1-1.734-.35 4.897 4.897 0 0 1-1.505-1.008 4.202 4.202 0 0 1-.972-1.424 4.461 4.461 0 0 1-.334-1.724 4.398 4.398 0 0 1 1.325-3.166c.432-.424.924-.75 1.477-.974a4.583 4.583 0 0 1 1.743-.337c.623 0 1.215.112 1.777.337.563.225 1.063.55 1.501.974.438.425.774.909 1.005 1.452.232.544.348 1.115.348 1.714a4.34 4.34 0 0 1-1.334 3.148 4.707 4.707 0 0 1-1.52 1.007 4.622 4.622 0 0 1-1.777.351zm15.807-4.468c0-1.074-.25-1.919-.748-2.534-.499-.615-1.187-.923-2.063-.923-.902 0-1.609.298-2.12.895-.512.596-.767 1.416-.767 2.459 0 1.062.274 1.91.824 2.543.55.634 1.275.951 2.177.951.851 0 1.514-.298 1.987-.895.473-.596.71-1.428.71-2.496zM115.882 30V17.513h1.134v1.555c.324-.6.746-1.06 1.267-1.382a3.27 3.27 0 0 1 1.753-.482c1.188 0 2.146.41 2.873 1.232.727.82 1.091 1.909 1.091 3.264 0 1.362-.356 2.45-1.067 3.265-.712.815-1.658 1.222-2.84 1.222-.68 0-1.28-.16-1.8-.482-.522-.322-.947-.795-1.277-1.42V30h-1.134z"/>
    </g>
</svg>
