<svg xmlns="http://www.w3.org/2000/svg" width="14" height="14" viewBox="0 0 14 14">
    <path fill="#747474" fill-rule="nonzero" d="M5.656 6.206c.038-.228.109-.431.21-.61.101-.178.242-.321.413-.43.165-.101.371-.158.627-.161.167.003.321.031.455.091.143.063.262.147.364.252.101.105.178.231.234.371.056.14.088.29.095.448h1.252a2.504 2.504 0 0 0-.192-.903 2.095 2.095 0 0 0-.494-.707c-.21-.2-.461-.35-.755-.458a2.802 2.802 0 0 0-.977-.165c-.455 0-.85.077-1.187.235a2.366 2.366 0 0 0-.84.644 2.707 2.707 0 0 0-.5.948A3.95 3.95 0 0 0 4.2 6.906v.192c0 .406.056.788.164 1.148.109.36.277.676.501.945.224.27.504.483.844.64.339.158.735.235 1.19.235.328 0 .637-.053.923-.161.288-.108.54-.255.756-.444.218-.19.393-.407.519-.658.126-.253.199-.518.21-.805H8.053a.997.997 0 0 1-.357.724 1.177 1.177 0 0 1-.367.207c-.133.045-.273.07-.423.07-.253-.007-.459-.06-.627-.165a1.236 1.236 0 0 1-.416-.434 1.836 1.836 0 0 1-.21-.612 4.13 4.13 0 0 1-.053-.69v-.192c0-.239.018-.473.056-.7zM7 0C3.133 0 0 3.133 0 7s3.133 7 7 7 7-3.133 7-7-3.133-7-7-7zm0 12.6A5.607 5.607 0 0 1 1.4 7c0-3.087 2.513-5.6 5.6-5.6 3.087 0 5.6 2.513 5.6 5.6 0 3.087-2.513 5.6-5.6 5.6z"/>
</svg>
