<svg xmlns="http://www.w3.org/2000/svg" width="14" height="16" viewBox="0 0 14 16">
    <g fill="#1B2C54" fill-rule="nonzero">
        <path d="M.68 6.95a2.915 2.915 0 0 1 2.91 2.91.68.68 0 0 0 1.36 0 2.914 2.914 0 0 1 2.91-2.91.68.68 0 0 0 0-1.36 2.915 2.915 0 0 1-2.91-2.91.68.68 0 0 0-1.36 0A2.915 2.915 0 0 1 .68 5.59a.68.68 0 0 0 0 1.36zm3.59-1.962c.331.513.769.95 1.282 1.282-.513.331-.951.769-1.282 1.282A4.303 4.303 0 0 0 2.988 6.27c.513-.331.95-.769 1.282-1.282zM11.113 15.227a2.116 2.116 0 0 0 2.114-2.113A2.116 2.116 0 0 0 11.113 11 2.116 2.116 0 0 0 9 13.114c0 1.165.948 2.113 2.113 2.113zm0-2.868a.756.756 0 0 1 0 1.51.755.755 0 0 1 0-1.51z"/>
        <circle cx="9.852" cy=".852" r="1"/>
    </g>
</svg>
