<svg xmlns="http://www.w3.org/2000/svg" width="155" height="41" viewBox="0 0 155 41">
    <g fill="none" fill-rule="nonzero">
        <path fill="#2A3468" d="M57.52 18.87C57.52 8.473 44.644 0 28.76 0 12.878 0 .003 8.474.003 18.87L0 19.973c0 11.028 11.254 19.96 28.757 19.96 17.612 0 28.763-8.93 28.763-19.958v-1.107"/>
        <path fill="#2491C4" d="M56.418 18.86c0 9.8-12.38 17.745-27.652 17.745S1.114 28.66 1.114 18.86c0-9.801 12.38-17.746 27.652-17.746 15.273 0 27.652 7.945 27.652 17.746"/>
        <path fill="#FFFFFE" d="M19.585 13.261c-.015.028-.29.314-.112.545.436.559 1.784.88 3.147.573.812-.183 1.852-1.013 2.86-1.815 1.091-.87 2.175-1.742 3.264-2.088 1.153-.369 1.892-.21 2.38-.063.536.16 1.165.514 2.17 1.27 1.892 1.427 9.5 8.089 10.815 9.24 1.058-.48 5.764-2.511 12.158-3.925-.556-3.42-2.63-6.548-5.774-9.11-4.383 1.847-9.74 2.81-14.977.245-.027-.011-2.862-1.357-5.658-1.29-4.155.096-5.956 1.9-7.861 3.81l-2.412 2.608"/>
        <path fill="#FFFFFE" d="M43.8 21.648c-.09-.08-8.946-7.854-10.953-9.367-1.16-.873-1.806-1.096-2.484-1.182-.354-.047-.841.02-1.182.113-.934.255-2.154 1.074-3.238 1.935-1.121.897-2.18 1.74-3.16 1.961-1.255.282-2.786-.05-3.485-.524-.283-.191-.482-.412-.578-.637-.258-.6.218-1.08.296-1.16l2.444-2.652c.284-.284.57-.57.863-.85-.788.104-1.518.306-2.227.504-.886.25-1.737.487-2.6.487-.359 0-2.286-.317-2.652-.417-2.212-.607-4.153-1.198-7.053-2.556-3.474 2.594-5.797 5.839-6.469 9.412.5.132 1.304.373 1.642.448 7.863 1.753 10.312 3.56 10.756 3.937a2.61 2.61 0 0 1 1.95-.876c.87 0 1.653.439 2.13 1.117a2.966 2.966 0 0 1 1.874-.661c.364 0 .742.068 1.124.198.887.305 1.345.897 1.583 1.433a2.618 2.618 0 0 1 1.094-.232c.423 0 .864.097 1.308.289 1.45.624 1.675 2.053 1.544 3.13.103-.013.207-.018.312-.018a3.125 3.125 0 0 1 2.744 4.605c.467.263 1.66.86 2.706.727.836-.106 1.154-.392 1.268-.554.078-.11.16-.24.083-.333l-2.218-2.473s-.366-.346-.245-.48c.125-.137.35.06.51.194 1.13.946 2.508 2.373 2.508 2.373.024.016.115.197.625.288.439.08 1.215.033 1.753-.41.136-.112.272-.252.385-.395-.009.006-.016.016-.025.02.568-.729-.063-1.466-.063-1.466l-2.59-2.917s-.37-.344-.244-.482c.113-.12.35.061.513.196.82.688 1.979 1.855 3.09 2.946.216.159 1.193.765 2.485-.087.784-.516.942-1.15.92-1.628-.055-.633-.548-1.084-.548-1.084l-3.538-3.568s-.373-.32-.242-.482c.109-.137.351.06.51.193 1.128.946 4.179 3.752 4.179 3.752.043.03 1.097.784 2.4-.048.466-.299.763-.75.789-1.272.044-.908-.594-1.447-.594-1.447"/>
        <path fill="#FFFFFE" d="M26.639 26.171c-.549-.006-1.149.32-1.227.273-.044-.029.033-.25.085-.377.052-.127.775-2.307-.986-3.065-1.348-.58-2.171.073-2.455.368-.074.077-.108.071-.116-.027-.027-.393-.202-1.455-1.365-1.812-1.663-.51-2.732.654-3.003 1.074a1.926 1.926 0 0 0-1.903-1.69 1.933 1.933 0 0 0-1.932 1.935c0 1.069.864 1.936 1.93 1.936.517.001.987-.207 1.334-.54.01.01.015.028.01.065-.082.479-.231 2.219 1.585 2.927.728.283 1.347.073 1.861-.289.153-.108.178-.062.156.082-.066.447.018 1.405 1.356 1.95 1.019.415 1.622-.01 2.016-.376.172-.157.22-.132.228.111a2.423 2.423 0 0 0 2.423 2.324 2.429 2.429 0 0 0 2.429-2.432 2.44 2.44 0 0 0-2.426-2.437"/>
        <path fill="#2A3468" d="M26.639 30.867a2.24 2.24 0 0 1-2.249-2.157c-.003-.103-.013-.378-.246-.378-.095 0-.178.057-.274.143-.267.249-.607.502-1.105.502-.225 0-.47-.053-.728-.159-1.284-.521-1.302-1.406-1.25-1.762.015-.095.02-.193-.045-.27l-.08-.071h-.08c-.065 0-.132.027-.223.091-.371.262-.727.389-1.09.389-.199 0-.403-.04-.607-.12-1.69-.66-1.557-2.26-1.475-2.741.012-.098-.012-.174-.074-.224l-.119-.099-.111.107c-.33.32-.76.493-1.214.493a1.76 1.76 0 0 1 .003-3.52c.874 0 1.619.66 1.73 1.537l.061.473.259-.4c.029-.047.738-1.123 2.042-1.122.248 0 .505.04.762.12 1.04.318 1.216 1.264 1.243 1.658.019.23.181.24.213.24.09 0 .156-.057.203-.106a1.769 1.769 0 0 1 1.292-.547c.306.001.632.074.968.219 1.652.71.902 2.816.894 2.838-.143.35-.148.504-.015.593l.066.03h.048c.074 0 .167-.032.32-.084.225-.077.564-.195.881-.194 1.245.014 2.256 1.029 2.256 2.262a2.26 2.26 0 0 1-2.256 2.259zm17.504-10.15c-2.729-2.388-9.034-7.887-10.742-9.172-.975-.736-1.64-1.125-2.225-1.3a3.68 3.68 0 0 0-1.093-.17c-.434 0-.9.078-1.388.234-1.104.35-2.203 1.227-3.266 2.075l-.055.043c-.99.79-2.014 1.607-2.79 1.78a4.693 4.693 0 0 1-1.032.117c-.868-.002-1.647-.253-1.94-.627-.048-.062-.017-.162.096-.306l.015-.019 2.4-2.595c1.88-1.885 3.655-3.666 7.742-3.76l.204-.003c2.544.002 5.087 1.144 5.373 1.276 2.385 1.168 4.847 1.76 7.322 1.763 2.58 0 5.24-.64 8.039-1.932-.312-.264-.638-.52-.972-.773-2.459 1.07-4.8 1.61-7.06 1.609-2.308-.002-4.614-.558-6.852-1.654-.118-.056-2.927-1.385-5.848-1.386-.077 0-.155.001-.231.003-3.433.08-5.367 1.303-6.667 2.375-1.265.03-2.356.336-3.327.608-.866.242-1.614.451-2.344.451-.3 0-.841-.028-.89-.03-.84-.025-5.067-1.065-8.43-2.342-.343.244-.673.495-.995.752 3.513 1.445 7.788 2.562 9.138 2.65.375.024.775.067 1.175.068.893 0 1.784-.251 2.646-.493a20 20 0 0 1 1.662-.414 84.14 84.14 0 0 0-.473.472l-2.439 2.646c-.192.194-.609.713-.334 1.352.11.258.331.504.641.714.582.392 1.622.658 2.588.658.367 0 .714-.036 1.033-.108 1.022-.23 2.094-1.087 3.23-1.993.905-.72 2.19-1.637 3.175-1.906.276-.075.613-.121.885-.121.081 0 .157.003.229.013.65.083 1.279.305 2.402 1.15 2.001 1.508 10.859 9.281 10.946 9.358.005.005.57.493.531 1.306-.021.453-.272.855-.708 1.134-.377.24-.768.363-1.162.363-.592 0-1-.279-1.026-.298-.033-.027-3.068-2.818-4.184-3.756-.178-.147-.35-.28-.525-.28a.288.288 0 0 0-.232.11c-.176.217.02.517.252.715l3.545 3.574c.005.004.442.415.49.964.028.592-.255 1.088-.842 1.474-.418.276-.842.417-1.256.417-.544 0-.927-.25-1.011-.308l-.509-.503c-.93-.917-1.889-1.866-2.591-2.454-.171-.143-.354-.275-.528-.275a.3.3 0 0 0-.224.095c-.08.09-.136.25.064.517.082.11.179.2.179.2l2.587 2.915c.021.025.533.635.058 1.243l-.091.116a2.725 2.725 0 0 1-.24.233c-.442.363-1.032.402-1.265.402-.125 0-.245-.01-.35-.03-.255-.046-.426-.117-.51-.215l-.03-.033c-.142-.147-1.446-1.482-2.525-2.386-.142-.12-.32-.27-.503-.27a.307.307 0 0 0-.234.105c-.213.234.107.585.243.714l2.207 2.44a.518.518 0 0 1-.084.15c-.079.11-.346.378-1.147.478a2.149 2.149 0 0 1-.293.018c-.825 0-1.705-.401-2.159-.643a3.3 3.3 0 0 0-3.095-4.705c.06-.832-.058-2.407-1.67-3.1a3.455 3.455 0 0 0-1.375-.304c-.352 0-.69.06-1.009.183a2.77 2.77 0 0 0-1.611-1.372 3.598 3.598 0 0 0-1.181-.209c-.67 0-1.289.198-1.84.591a2.783 2.783 0 0 0-2.165-1.048c-.735 0-1.442.295-1.965.815-.687-.526-3.412-2.262-10.703-3.923a38.429 38.429 0 0 1-1.66-.459c-.082.396-.145.797-.186 1.2 0 0 1.345.323 1.609.383 7.449 1.66 9.91 3.385 10.326 3.711a2.8 2.8 0 0 0 3.088 3.83c.231 1.137.973 1.998 2.105 2.44.33.127.666.193.994.193.213 0 .427-.026.636-.08.209.533.68 1.198 1.732 1.626.368.149.738.227 1.096.227.293 0 .58-.052.852-.153a3.28 3.28 0 0 0 5.4 1.046c.532.297 1.653.833 2.787.835.146 0 .284-.011.422-.027 1.125-.143 1.65-.585 1.89-.928.043-.06.082-.123.115-.19.266.077.559.14.893.14.615 0 1.205-.21 1.801-.646.586-.423 1.002-1.032 1.062-1.55a.323.323 0 0 0 .003-.022c.198.041.4.062.603.062.633 0 1.255-.198 1.85-.589 1.147-.755 1.347-1.74 1.328-2.385.2.042.406.063.61.063.594 0 1.177-.179 1.733-.535.711-.455 1.14-1.154 1.204-1.966a2.66 2.66 0 0 0-.382-1.588c1.922-.831 6.316-2.44 11.49-3.609-.031-.403-.09-.8-.161-1.196-6.26 1.394-10.931 3.422-12.101 3.944z"/>
        <g>
            <path fill="#2A3468" d="M150.88 14.257c-.494.67-1.2 1.006-2.123 1.006-.922 0-1.632-.335-2.13-1.006-.498-.67-.746-1.624-.746-2.86 0-1.235.248-2.187.746-2.854.498-.666 1.208-1 2.13-1 .923 0 1.629.334 2.123 1 .494.667.74 1.619.74 2.853 0 1.237-.246 2.19-.74 2.86zm2.522-7.484c-1.018-1.305-2.562-1.957-4.636-1.957-2.07 0-3.616.652-4.633 1.957-1.018 1.304-1.528 2.845-1.528 4.623 0 1.81.51 3.357 1.528 4.645 1.017 1.284 2.562 1.928 4.633 1.928 2.074 0 3.618-.644 4.636-1.928 1.019-1.288 1.526-2.834 1.526-4.645 0-1.778-.507-3.32-1.526-4.623zM125.79 12.734c-.02 1.082-.324 1.828-.906 2.236a3.25 3.25 0 0 1-1.908.615c-.437 0-.807-.125-1.111-.37-.304-.246-.455-.646-.455-1.199 0-.62.248-1.077.745-1.373.297-.174.78-.323 1.455-.441l.721-.137c.359-.07.64-.144.847-.224.209-.078.41-.18.613-.31v1.203zm1.604-7.052c-1.032-.536-2.213-.806-3.543-.806-2.043 0-3.485.546-4.324 1.634-.528.698-.824 1.587-.893 2.67h3.052c.076-.478.226-.857.451-1.136.315-.378.85-.567 1.606-.567.677 0 1.188.094 1.538.29.347.192.522.543.522 1.049 0 .417-.226.722-.682.92-.254.114-.674.208-1.264.284l-1.082.136c-1.23.159-2.163.425-2.795.796-1.156.682-1.734 1.782-1.734 3.304 0 1.172.358 2.08 1.078 2.719.716.64 1.629.908 2.73.96 6.903.316 6.825-3.722 6.888-4.562V8.725c0-1.49-.517-2.506-1.548-3.043zM111.653 7.644c.79 0 1.368.25 1.743.748.257.37.417.785.48 1.246h3.405c-.187-1.758-.788-2.985-1.803-3.68-1.019-.693-2.323-1.041-3.917-1.041-1.875 0-3.349.59-4.412 1.766-1.067 1.178-1.6 2.824-1.6 4.94 0 1.875.482 3.403 1.447 4.58.965 1.176 2.47 1.766 4.516 1.766 2.048 0 3.594-.706 4.636-2.118.653-.874 1.02-1.803 1.097-2.784h-3.394c-.069.648-.267 1.178-.596 1.585-.327.406-.879.61-1.66.61-1.099 0-1.847-.512-2.244-1.54-.217-.548-.328-1.274-.328-2.177 0-.948.11-1.708.328-2.282.413-1.078 1.18-1.619 2.302-1.619M104.636 4.917c-6.995 0-6.581 6.337-6.581 6.337v6.437h3.174v-6.038c0-.989.123-1.722.365-2.198.435-.844 1.286-1.268 2.555-1.268a8.444 8.444 0 0 1 .909.058V4.941c-.142-.01-.233-.014-.272-.018a1.815 1.815 0 0 0-.15-.006M88.71 8.28c.446-.47 1.072-.705 1.882-.705.744 0 1.367.221 1.87.666.501.442.782 1.093.839 1.948H87.87c.113-.803.394-1.439.84-1.91zm4.266 6.047a2.351 2.351 0 0 1-.435.492c-.448.377-1.057.492-1.774.492-.678 0-1.209-.105-1.69-.415-.791-.498-1.237-1.34-1.285-2.578h8.783c.012-1.065-.021-1.88-.105-2.449-.146-.966-.467-1.818-.96-2.55-.548-.832-1.245-1.44-2.085-1.827-.84-.383-1.785-.576-2.833-.576-1.77 0-3.205.57-4.313 1.71-1.107 1.141-1.663 2.778-1.663 4.916 0 2.281.614 3.928 1.842 4.94C87.683 17.493 89.101 18 90.705 18c1.944 0 3.456-.6 4.536-1.8.582-.632.947-1.256 1.101-1.873h-3.366zM83.342 17.69h-2.9v-7.471c0-.682-.22-2.306-2.133-2.306-1.274 0-2.197.941-2.197 2.306v7.47H73.21v-7.47c0-.682-.199-2.306-2.11-2.306-1.297 0-2.199.941-2.199 2.306v7.47H66V10.29c0-3.084 2-5.417 5.1-5.417 1.539 0 2.79.662 3.605 1.721a4.58 4.58 0 0 1 3.604-1.72c3.165 0 5.033 2.237 5.033 5.416v7.4M137.854 14.284c-.464.68-1.144 1.019-2.035 1.019-.894 0-1.559-.343-1.997-1.025-.437-.684-.656-1.679-.656-2.818 0-1.057.214-1.941.645-2.654.431-.713 1.107-1.07 2.03-1.07.605 0 1.135.196 1.593.588.745.649 1.117 1.814 1.117 3.322 0 1.08-.232 1.958-.697 2.638zm3.808-13.269s-3.198-.35-3.198 2.279l-.002 3.479a3.855 3.855 0 0 0-1.382-1.363c-.567-.328-1.216-.493-1.948-.493-1.586 0-2.85.604-3.798 1.81-.949 1.209-1.42 2.95-1.42 5.054 0 1.827.48 3.324 1.442 4.49.962 1.165 2.85 1.676 4.526 1.676 5.845 0 5.777-5.129 5.777-5.129l.003-11.803z"/>
            <path fill="#2491C4" d="M94.499 29.516c0-1.225-.234-2.166-.702-2.827-.466-.657-1.135-.99-2.006-.99-.84 0-1.493.333-1.962.99-.434.598-.65 1.542-.65 2.827 0 1.197.232 2.088.7 2.686.465.66 1.135.99 2.006.99.807 0 1.446-.33 1.912-.99.468-.66.702-1.552.702-2.686m-5.32 8.788c0 .44-.157.817-.469 1.13-.31.315-.683.472-1.12.472h-1.584V28.62c0-2.195.722-3.57 1.912-4.498.786-.615 1.958-1.2 4.153-1.2 1.482 0 3.218.588 4.155 1.757 1.052 1.316 1.491 2.781 1.491 4.695 0 1.98-.467 3.578-1.4 4.806-.933 1.195-2.131 1.79-3.593 1.79-.777 0-1.461-.142-2.052-.422-.624-.315-1.12-.802-1.493-1.462v4.218M113.524 29.517c0 2.165.61 3.365 1.833 3.602 1.22.232 2.123-.058 2.704-.873.275-.343.473-.886.595-1.622a7.03 7.03 0 0 0 .024-2.188 4.416 4.416 0 0 0-.757-1.932c-.396-.564-.977-.847-1.741-.847-1.04 0-1.74.394-2.108 1.175-.369.786-.55 1.68-.55 2.685m5.225 5.412v-.797c-.55.88-1.293 1.426-2.224 1.647a4.444 4.444 0 0 1-2.77-.237c-.919-.375-1.706-1.074-2.364-2.093-.655-1.023-.983-2.364-.983-4.028 0-1.943.435-3.522 1.305-4.73.871-1.207 2.27-1.758 4.194-1.812 1.897-.051 3 .388 4.08 1.225 1.18.916 1.878 2.323 1.878 4.518v6.64c.004 2.112-1.436 6.028-5.958 5.696-2.802-.208-4.356-1.384-5.224-4.049h3.345c.244.438.618.776 1.125 1.01.501.238 1.008.299 1.509.189.503-.11.963-.417 1.378-.917.41-.502.646-1.257.709-2.262M106.088 30.827c-.02 1.083-.324 1.827-.905 2.237a3.249 3.249 0 0 1-1.908.613c-.437 0-.806-.124-1.11-.37-.305-.245-.457-.646-.457-1.198 0-.62.249-1.078.747-1.373.297-.174.78-.323 1.454-.441l.72-.137c.36-.07.643-.144.847-.224.21-.077.41-.18.612-.31v1.203zm1.605-7.052c-1.033-.535-2.214-.805-3.542-.805-2.045 0-3.486.546-4.326 1.634-.526.697-.824 1.586-.892 2.669h3.054c.075-.478.224-.856.45-1.135.315-.379.85-.568 1.605-.568.679 0 1.189.095 1.538.29.347.193.522.543.522 1.05 0 .416-.227.723-.682.92-.253.113-.673.208-1.264.284l-1.082.135c-1.229.159-2.163.426-2.793.796-1.158.681-1.734 1.782-1.734 3.303 0 1.172.356 2.08 1.077 2.719.715.639 1.628.909 2.729.96 6.901.316 6.824-3.722 6.887-4.562v-4.647c0-1.49-.515-2.504-1.547-3.043zM131.348 32.28c-.493.672-1.2 1.007-2.122 1.007-.922 0-1.633-.335-2.13-1.006-.499-.67-.746-1.623-.746-2.859 0-1.234.247-2.186.747-2.852.496-.668 1.207-1 2.13-1 .92 0 1.628.332 2.121 1 .495.666.741 1.618.741 2.852 0 1.236-.246 2.19-.74 2.859m2.523-7.483c-1.02-1.305-2.565-1.956-4.638-1.956-2.069 0-3.615.65-4.632 1.956-1.02 1.304-1.528 2.845-1.528 4.624 0 1.81.509 3.357 1.528 4.644 1.017 1.283 2.563 1.927 4.632 1.927 2.073 0 3.618-.644 4.638-1.927 1.017-1.287 1.523-2.834 1.523-4.644 0-1.78-.506-3.32-1.523-4.624"/>
        </g>
    </g>
</svg>
