<svg xmlns="http://www.w3.org/2000/svg" width="18" height="20" viewBox="0 0 18 20">
    <g fill="#1C85DA" fill-rule="evenodd">
        <path d="M4.603 9.873c0-.519-.366-.828-1.01-.828-.263 0-.441.025-.535.05v1.666c.11.025.247.033.433.033.687 0 1.112-.343 1.112-.92zM8.592 9.061a2.73 2.73 0 0 0-.586.05v3.692c.111.026.29.026.45.026 1.171.008 1.935-.628 1.935-1.976C10.4 9.68 9.704 9.06 8.592 9.06z"/>
        <path fill-rule="nonzero" d="M16.237 6.892h-.47V4.66l-.003-.042a.368.368 0 0 0-.091-.245L11.907.13a.379.379 0 0 0-.18-.112l-.02-.006A.387.387 0 0 0 11.617 0H2.362a.762.762 0 0 0-.766.756v6.136h-.47c-.604 0-1.094.484-1.094 1.08v5.617c0 .596.49 1.08 1.095 1.08h.469v3.844c0 .417.343.756.766.756h12.64c.422 0 .766-.34.766-.756V14.67h.469c.604 0 1.095-.484 1.095-1.08V7.972c0-.596-.49-1.08-1.095-1.08zM2.362.756h8.873v3.866a.38.38 0 0 0 .383.378h3.384v1.893H2.362V.756zm9.404 10.055c0 1.08-.399 1.825-.951 2.285-.602.494-1.519.728-2.639.728-.67 0-1.145-.042-1.468-.083V8.199a11.73 11.73 0 0 1 1.749-.117c1.085 0 1.79.192 2.342.602.593.436.967 1.13.967 2.127zm-9.99 2.955V8.199c.4-.067.96-.117 1.75-.117.797 0 1.365.15 1.747.452.365.285.61.753.61 1.306s-.185 1.021-.525 1.34c-.441.41-1.095.594-1.859.594-.17 0-.323-.009-.44-.025v2.017H1.776zm13.226 4.543H2.362v-3.64h12.64v3.64zm1.11-9.139h-2.199v1.29h2.054v1.037h-2.054v2.269h-1.297V8.124h3.496V9.17z"/>
    </g>
</svg>
