<svg xmlns="http://www.w3.org/2000/svg" width="76" height="69" viewBox="0 0 76 69">
    <g fill="#FDF158" fill-rule="evenodd">
        <path fill-rule="nonzero" d="M75.43 61.454L43.203 2.818c-1.734-3.155-6.396-3.217-8.217-.111l-17.6 30.1c-.965 1.652 1.616 3.154 2.584 1.5l17.599-30.1c.67-1.145 2.373-1.121 3.012.041L72.81 62.884c.624 1.136-.22 2.552-1.518 2.552H4.703c-1.321 0-2.16-1.458-1.494-2.594l10.714-18.317c.966-1.651-1.615-3.153-2.582-1.499L.628 61.342c-1.806 3.08.508 7.072 4.075 7.072h66.588c3.521 0 5.84-3.868 4.14-6.96z"/>
        <circle cx="38.5" cy="52.5" r="3.5"/>
        <path fill-rule="nonzero" d="M15.5 39.414c.814 0 1.5-.685 1.5-1.5s-.686-1.5-1.5-1.5c-.793 0-1.464.645-1.499 1.435a1.516 1.516 0 0 0 1.499 1.565z"/>
        <path d="M35.067 41.698L34.05 25.827c-.178-2.942.736-4.413 2.74-4.413h3.552c1.967-.021 2.854 1.45 2.66 4.413-.193 2.963-.532 8.253-1.016 15.871-.2 2.477-1.353 3.716-3.458 3.716-2.105 0-3.259-1.239-3.462-3.716z"/>
    </g>
</svg>
