<svg xmlns="http://www.w3.org/2000/svg" width="116" height="83" viewBox="0 0 116 83">
    <g fill="none" fill-rule="nonzero">
        <path fill="#AAD5F8" d="M24.713 57.565c.003-.065.02-.126.02-.191 0-3.554-2.866-6.437-6.401-6.437-1.647 0-3.133.643-4.267 1.67-1.135-1.027-2.62-1.67-4.267-1.67-3.536 0-6.4 2.883-6.4 6.437 0 .065.016.126.018.19a3.208 3.208 0 0 0-2.152 3.028v5.365h25.602v-5.365c0-1.406-.903-2.59-2.153-3.027z"/>
        <path fill="#94C1FF" d="M12.166 53.993a6.596 6.596 0 0 1 1.058-.808c-.934-.585-2.01-.939-3.174-.939-.354 0-.696.052-1.034.111 1.2.224 2.28.805 3.15 1.636z"/>
        <path fill="#8DC3F0" d="M24.845 59.178c.002-.068.019-.132.019-.2 0-3.716-2.842-6.732-6.35-6.732-.37 0-.729.045-1.081.111 3.012.526 5.314 3.28 5.314 6.622 0 .067-.016.131-.018.2 1.24.457 2.135 1.695 2.135 3.166v5.61h2.116v-5.61c0-1.47-.895-2.71-2.135-3.167z"/>
        <path fill="#FFF" d="M5.453 58.62c-.003-.066-.02-.126-.02-.191 0-3.19 2.412-5.821 5.567-6.323A6.734 6.734 0 0 0 9.867 52c-3.674 0-6.65 2.88-6.65 6.428 0 .065.017.126.02.191C1.936 59.057 1 60.24 1 61.643V67h2.217v-5.357c0-1.404.937-2.586 2.236-3.024z"/>
        <path fill="#AAD5F8" d="M37 11h4v17h-4z"/>
        <path fill="#FFF" d="M37 11h2v16h-2z"/>
        <g fill="#AAD5F8">
            <path d="M62.588 5.452l-39.34 33.522v-4.19l39.34-33.522zM62.588 5.452l39.34 33.522v-4.19L62.588 1.262z"/>
        </g>
        <path fill="#AAD5F8" d="M94.87 63.724V32.81L64 6 33.13 32.81v30.914H31V68h66v-4.276z"/>
        <path fill="#8DC3F0" d="M33.13 38.949v-6.14L64 6l30.87 26.81v5.656l-31.223-25.51L33.13 38.95z"/>
        <g fill="#8DC3F0" transform="translate(39 25)">
            <ellipse cx="24.587" cy="5.581" rx="5.294" ry="5.33"/>
            <path d="M.236 15.176H12.94v12.791H.236zM36.234 15.176h12.705v12.791H36.234z"/>
        </g>
        <path fill="#8DC3F0" d="M58 49h11v17H58z"/>
        <g fill="#AAD5F8">
            <path d="M41.046 52.967h4.387l3.407-12.791h-4.388zM77.07 52.967h4.387l3.406-12.791h-4.387zM59.658 34.724c.908.732 2.044 1.188 3.297 1.188.273 0 .534-.04.796-.08l2.5-9.392c-.908-.732-2.043-1.188-3.296-1.188-.273 0-.534.04-.796.08l-2.5 9.392z"/>
        </g>
        <path fill="#FFF" d="M58 49h2v17h-2z"/>
        <g fill="#D7E9FF">
            <path d="M30.214 62.7h1.881v4.257h-1.88zM33.977 62.701h-1.881V31.928l1.88-1.84z"/>
        </g>
        <path fill="#5C9EFF" d="M93.843 61.703h2.09v4.126h-2.09z"/>
        <path fill="#8DC3F0" d="M91.754 61.703h2.09V31.87l-2.09-1.784zM70.869 69.956H56.222l2.09-4.128H68.78z"/>
        <g>
            <path fill="#1C85DA" d="M61.704 61.537a1.069 1.069 0 0 1-1.069-1.06c0-.588.464-1.062 1.048-1.062h.021a1.06 1.06 0 0 1 1.058 1.061c0 .586-.473 1.06-1.058 1.06zM24.602 36.072c-.296 0-.59-.124-.8-.367a1.064 1.064 0 0 1 .108-1.497L63.065.258a1.058 1.058 0 0 1 1.494.11 1.064 1.064 0 0 1-.109 1.496l-39.155 33.95c-.2.173-.447.258-.693.258z"/>
            <path fill="#1C85DA" d="M102.913 36.072c-.246 0-.492-.085-.693-.258L63.065 1.864a1.064 1.064 0 0 1-.108-1.497A1.058 1.058 0 0 1 64.45.258l39.155 33.95c.443.383.49 1.054.11 1.497-.21.243-.504.367-.802.367zM24.602 40.316c-.296 0-.59-.125-.8-.367a1.064 1.064 0 0 1 .108-1.497l39.155-33.95a1.058 1.058 0 0 1 1.494.109 1.064 1.064 0 0 1-.109 1.497l-39.155 33.95c-.2.173-.447.258-.693.258z"/>
            <path fill="#1C85DA" d="M102.913 40.316c-.246 0-.492-.085-.693-.258L63.065 6.108a1.064 1.064 0 0 1-.108-1.497 1.058 1.058 0 0 1 1.493-.11l39.155 33.95c.443.384.49 1.055.11 1.498-.21.243-.504.367-.802.367zM24.602 40.316a1.06 1.06 0 0 1-1.058-1.06V35.01a1.059 1.059 0 1 1 2.117 0v4.244c0 .586-.474 1.061-1.059 1.061z"/>
            <path fill="#1C85DA" d="M102.913 40.316a1.059 1.059 0 0 1-1.058-1.06V35.01a1.059 1.059 0 1 1 2.116 0v4.244a1.06 1.06 0 0 1-1.058 1.061zM33.068 63.66a1.06 1.06 0 0 1-1.058-1.062V36.155a1.059 1.059 0 1 1 2.116 0v26.443a1.06 1.06 0 0 1-1.058 1.061zM94.447 63.66a1.06 1.06 0 0 1-1.058-1.062V36.155a1.059 1.059 0 1 1 2.116 0v26.443a1.06 1.06 0 0 1-1.058 1.061zM54.233 67.903H30.952a1.06 1.06 0 0 1-1.059-1.061c0-.587.474-1.061 1.059-1.061h23.281c.585 0 1.058.474 1.058 1.06a1.06 1.06 0 0 1-1.058 1.062zM96.563 67.903H73.282a1.06 1.06 0 0 1-1.058-1.061c0-.587.473-1.061 1.058-1.061h23.281c.585 0 1.059.474 1.059 1.06a1.06 1.06 0 0 1-1.059 1.062zM58.466 67.903a1.06 1.06 0 0 1-1.058-1.061V49.867a1.06 1.06 0 1 1 2.117 0v16.975a1.06 1.06 0 0 1-1.059 1.06z"/>
            <path fill="#1C85DA" d="M69.049 50.928H58.466a1.06 1.06 0 0 1-1.058-1.061c0-.587.473-1.061 1.058-1.061H69.05a1.06 1.06 0 0 1 1.058 1.06 1.06 1.06 0 0 1-1.058 1.062z"/>
            <path fill="#1C85DA" d="M69.049 67.903a1.06 1.06 0 0 1-1.058-1.061V49.867a1.059 1.059 0 1 1 2.116 0v16.975a1.06 1.06 0 0 1-1.058 1.06zM30.952 67.903a1.06 1.06 0 0 1-1.059-1.061v-4.244a1.059 1.059 0 1 1 2.117 0v4.244a1.06 1.06 0 0 1-1.058 1.06z"/>
            <path fill="#1C85DA" d="M35.185 63.66h-4.233a1.06 1.06 0 0 1-1.059-1.062c0-.586.474-1.06 1.059-1.06h4.233a1.06 1.06 0 0 1 1.058 1.06 1.06 1.06 0 0 1-1.058 1.061z"/>
            <path fill="#116FFF" d="M96.563 67.903a1.059 1.059 0 0 1-1.058-1.061v-4.244a1.059 1.059 0 1 1 2.117 0v4.244a1.06 1.06 0 0 1-1.059 1.06z"/>
            <path fill="#1C85DA" d="M71.165 72.146H56.35a1.059 1.059 0 0 1-1.059-1.06c0-.587.474-1.061 1.059-1.061h14.815c.585 0 1.058.474 1.058 1.06 0 .587-.473 1.061-1.058 1.061zM88.097 53.05H75.398a1.06 1.06 0 0 1-1.058-1.061V39.257c0-.586.473-1.06 1.058-1.06h12.7c.584 0 1.058.474 1.058 1.06V51.99c0 .586-.474 1.06-1.059 1.06zm-11.64-2.122h10.582v-10.61H76.457v10.61zM52.117 53.05h-12.7a1.059 1.059 0 0 1-1.058-1.061V39.257c0-.586.474-1.06 1.059-1.06h12.699c.585 0 1.058.474 1.058 1.06V51.99a1.06 1.06 0 0 1-1.058 1.06zm-11.641-2.122h10.582v-10.61H40.476v10.61z"/>
            <path fill="#1C85DA" d="M45.767 50.928a1.06 1.06 0 0 1-1.058-1.061v-8.488a1.06 1.06 0 1 1 2.117 0v8.488a1.06 1.06 0 0 1-1.059 1.06zM81.748 50.928a1.06 1.06 0 0 1-1.058-1.061v-8.488a1.059 1.059 0 1 1 2.116 0v8.488c0 .586-.473 1.06-1.058 1.06z"/>
            <path fill="#1C85DA" d="M85.98 46.684h-8.465a1.06 1.06 0 0 1-1.059-1.061c0-.586.474-1.06 1.059-1.06h8.466a1.06 1.06 0 0 1 1.058 1.06 1.06 1.06 0 0 1-1.058 1.061zM50 46.684h-8.466a1.06 1.06 0 0 1-1.058-1.061c0-.586.473-1.06 1.058-1.06H50c.585 0 1.058.474 1.058 1.06A1.06 1.06 0 0 1 50 46.684zM63.758 36.074c-3.502 0-6.35-2.855-6.35-6.365 0-3.51 2.848-6.366 6.35-6.366 3.501 0 6.35 2.856 6.35 6.366s-2.849 6.365-6.35 6.365zm0-10.61a4.243 4.243 0 0 0-4.233 4.245 4.243 4.243 0 0 0 4.233 4.243 4.242 4.242 0 0 0 4.233-4.243 4.242 4.242 0 0 0-4.233-4.244z"/>
            <path fill="#1C85DA" d="M63.758 33.953a1.06 1.06 0 0 1-1.059-1.061v-6.366a1.059 1.059 0 1 1 2.117 0v6.366a1.06 1.06 0 0 1-1.058 1.06z"/>
            <path fill="#1C85DA" d="M66.932 30.77h-6.35a1.059 1.059 0 0 1-1.057-1.061 1.06 1.06 0 0 1 1.058-1.061h6.35a1.06 1.06 0 0 1 1.058 1.06 1.06 1.06 0 0 1-1.059 1.062zM1.32 67.903a1.06 1.06 0 0 1-1.058-1.061V64.72a1.059 1.059 0 1 1 2.117 0v2.122a1.06 1.06 0 0 1-1.058 1.06zM5.553 67.903a1.06 1.06 0 0 1-1.058-1.061V64.72a1.059 1.059 0 1 1 2.117 0v2.122a1.06 1.06 0 0 1-1.059 1.06zM9.787 67.903a1.06 1.06 0 0 1-1.058-1.061V64.72a1.059 1.059 0 1 1 2.116 0v2.122a1.06 1.06 0 0 1-1.058 1.06zM14.02 67.903a1.06 1.06 0 0 1-1.059-1.061V64.72a1.059 1.059 0 1 1 2.117 0v2.122a1.06 1.06 0 0 1-1.058 1.06zM18.253 67.903a1.06 1.06 0 0 1-1.059-1.061V64.72a1.059 1.059 0 1 1 2.117 0v2.122a1.06 1.06 0 0 1-1.058 1.06zM22.486 67.903a1.06 1.06 0 0 1-1.059-1.061V64.72a1.059 1.059 0 1 1 2.117 0v2.122a1.06 1.06 0 0 1-1.058 1.06zM26.719 67.903a1.06 1.06 0 0 1-1.058-1.061V64.72a1.059 1.059 0 1 1 2.116 0v2.122a1.06 1.06 0 0 1-1.058 1.06zM26.719 62.598a1.059 1.059 0 0 1-1.058-1.06c0-.895-.573-1.696-1.426-1.993a1.058 1.058 0 0 1-.709-1.036l1.067-.054-1.046-.166c-.003-2.86-2.377-5.24-5.294-5.24-1.288 0-2.54.491-3.525 1.38a1.057 1.057 0 0 1-1.416 0 5.267 5.267 0 0 0-3.525-1.38c-2.918 0-5.291 2.38-5.291 5.305.014.465-.255 1.039-.692 1.19a2.117 2.117 0 0 0-1.425 1.993 1.059 1.059 0 1 1-2.116 0 4.24 4.24 0 0 1 2.132-3.67c.252-3.87 3.47-6.94 7.392-6.94 1.513 0 2.986.477 4.233 1.358a7.332 7.332 0 0 1 4.233-1.357c3.92 0 7.14 3.07 7.392 6.939a4.24 4.24 0 0 1 2.132 3.67c0 .586-.473 1.061-1.058 1.061zM41.534 21.391a1.06 1.06 0 0 1-1.058-1.06v-8.659a1.06 1.06 0 1 1 2.117 0v8.658a1.06 1.06 0 0 1-1.059 1.061zM37.301 25.061A1.06 1.06 0 0 1 36.243 24V11.672a1.06 1.06 0 1 1 2.116 0V24a1.06 1.06 0 0 1-1.058 1.061z"/>
            <path fill="#1C85DA" d="M42.593 12.734h-6.35a1.06 1.06 0 0 1-1.058-1.062c0-.586.473-1.06 1.058-1.06h6.35c.584 0 1.058.474 1.058 1.06a1.06 1.06 0 0 1-1.058 1.062z"/>
        </g>
        <g>
            <path fill="#AAD5F8" d="M82.571 47.121h4.458v33.637H82.57z"/>
            <path fill="#AAD5F8" d="M78.114 51.606h35.657v4.485H78.114zM90.371 59.455h21.172V74.03H90.37z"/>
            <path fill="#D7E9FF" d="M90.371 59.455H92.6V74.03h-2.229z"/>
            <path fill="#8DC3F0" d="M109.314 59.455h2.229V74.03h-2.229z"/>
            <path fill="#1C85DA" d="M86.925 82.156h-4.222a1.057 1.057 0 0 1-1.056-1.06v-25.42a1.057 1.057 0 1 1 2.111 0v24.36h2.112v-24.36a1.057 1.057 0 1 1 2.11 0v25.42c0 .585-.471 1.06-1.055 1.06zM86.925 52.498a1.056 1.056 0 0 1-1.055-1.06v-3.176h-2.112v3.177a1.057 1.057 0 1 1-2.111 0v-4.237c0-.585.472-1.06 1.056-1.06h4.222c.584 0 1.056.475 1.056 1.06v4.237c0 .586-.472 1.059-1.056 1.059z"/>
            <path fill="#1C85DA" d="M114.372 56.735H78.48a1.057 1.057 0 0 1-1.056-1.06V51.44c0-.585.472-1.06 1.056-1.06h35.892c.584 0 1.056.475 1.056 1.06v4.237c0 .585-.472 1.059-1.056 1.059zm-34.837-2.119h33.781v-2.118h-33.78v2.118zM112.26 75.8H91.149a1.057 1.057 0 0 1-1.056-1.059V59.912c0-.585.472-1.059 1.056-1.059h21.113c.583 0 1.055.474 1.055 1.06V74.74c0 .585-.472 1.06-1.055 1.06zm-20.057-2.118h19.002v-12.71H92.203v12.71z"/>
            <path fill="#1C85DA" d="M93.259 60.971a1.057 1.057 0 0 1-1.056-1.059v-2.118a1.057 1.057 0 1 1 2.112 0v2.118c0 .586-.472 1.06-1.056 1.06zM110.15 60.971a1.057 1.057 0 0 1-1.056-1.059v-2.118a1.057 1.057 0 1 1 2.111 0v2.118c0 .586-.472 1.06-1.056 1.06z"/>
        </g>
    </g>
</svg>
