<svg xmlns="http://www.w3.org/2000/svg" width="18" height="15" viewBox="0 0 18 15">
    <path fill="#2C2C2C" fill-rule="nonzero" d="M17.477 2.086L13.066.028c-.003-.002-.006 0-.01-.002a.288.288 0 0 0-.107-.024L12.94 0l-.017.002a.265.265 0 0 0-.08.016l-.018.006-4.002 1.715L4.822.024 4.816.023a.293.293 0 0 0-.1-.02C4.712.002 4.709 0 4.706 0L4.69.002a.296.296 0 0 0-.078.015l-.016.004L.185 1.786A.294.294 0 0 0 0 2.059v12.647a.294.294 0 0 0 .404.273l4.298-1.72 4.006 1.717c.004.002.008.001.013.003a.289.289 0 0 0 .103.021c.035 0 .07-.009.103-.021l.012-.003 4.006-1.716 4.299 1.72a.294.294 0 0 0 .403-.274V2.353a.294.294 0 0 0-.17-.267zM5 .74l3.53 1.513V14.26L5 12.747V.74zm12.059 13.531l-3.824-1.529V.756L17.06 2.54v11.731z"/>
</svg>
