<svg xmlns="http://www.w3.org/2000/svg" width="15" height="15" viewBox="0 0 15 15">
    <g fill="#1B2C54" fill-rule="nonzero">
        <path d="M7.25 7.941h-7a.251.251 0 0 0-.25.252v6.555c0 .14.112.252.25.252h7c.138 0 .25-.113.25-.252V8.193a.251.251 0 0 0-.25-.252zM7 14.496H.5v-.757H7v.757zm0-1.26H.5v-.757H7v.756zm0-1.261H.5v-1.009H7v1.009zm0-1.513H.5v-.756H7v.756zm0-1.26H.5v-.757H7v.757z"/>
        <path d="M14.927.073A.25.25 0 0 0 14.75 0H.25A.25.25 0 0 0 0 .25v7c0 .138.112.25.25.25H8v7.25c0 .138.112.25.25.25h6.5a.25.25 0 0 0 .25-.25V.25a.25.25 0 0 0-.073-.177zM14.5 14.5h-6V7.25A.25.25 0 0 0 8.25 7H.5V.5h14v14z"/>
    </g>
</svg>
