<svg xmlns="http://www.w3.org/2000/svg" width="15" height="15" viewBox="0 0 15 15">
    <g fill="#1B2C54" fill-rule="nonzero">
        <path d="M2.727 12.273h-.909V10H.91v2.273H0V15h2.727v-.91H5v-.908H2.727v-.91zm-.909 1.818H.91v-.91h.91v.91zM2.727 0H0v2.727h.91V5h.908V2.727h.91v-.909H5V.91H2.727V0zm-.909 1.818H.91V.91h.91v.91zM12.273 0v.91H10v.908h2.273v.91h.909V5h.909V2.727H15V0h-2.727zm1.818 1.818h-.91V.91h.91v.91zM5.833.833h1v1h-1zM8.333.833h.834v.834h-.834zM8.333 13.333h.834v.834h-.834zM5.833 13.333h.834v.834h-.834zM.833 8.333h.834v.834H.833zM.833 5.833h1v1h-1zM13.333 5.833h.834v.834h-.834zM13.333 8.333h.834v.834h-.834zM14.09 10h-.908v2.273h-.91v.909H10v.909h2.273V15H15v-2.727h-.91V10zm0 4.09h-.908v-.908h.909v.909z"/>
    </g>
</svg>
