<svg xmlns="http://www.w3.org/2000/svg" width="30" height="30" viewBox="0 0 30 30">
    <path fill="#747474" fill-rule="nonzero" d="M15 30C6.716 30 0 23.284 0 15 0 6.716 6.716 0 15 0c8.284 0 15 6.716 15 15 0 8.284-6.716 15-15 15zm7.155-18.66A7.45 7.45 0 0 0 24 9.44a7.423 7.423 0 0 1-2.12.58 3.692 3.692 0 0 0 1.623-2.037 7.494 7.494 0 0 1-2.345.893 3.698 3.698 0 0 0-2.696-1.162 3.686 3.686 0 0 0-3.598 4.517 10.492 10.492 0 0 1-7.612-3.844 3.675 3.675 0 0 0 1.144 4.911 3.697 3.697 0 0 1-1.672-.461v.046a3.687 3.687 0 0 0 2.962 3.608c-.31.084-.636.127-.973.127-.24 0-.469-.023-.696-.064a3.697 3.697 0 0 0 3.45 2.556A7.427 7.427 0 0 1 6 20.632a10.478 10.478 0 0 0 5.66 1.654c6.793 0 10.506-5.605 10.506-10.47l-.01-.476z"/>
</svg>
