<svg xmlns="http://www.w3.org/2000/svg" width="16" height="15" viewBox="0 0 16 15">
    <path fill="#1B2C54" fill-rule="nonzero" d="M.383 6.094c0 .872.599 1.6 1.406 1.809v6.16H.852a.47.47 0 0 0 0 .937h14.062a.468.468 0 1 0 0-.938h-.937v-6.16a1.872 1.872 0 0 0 1.406-1.808v-.469h-15v.469zm9.375 1.875c1.036 0 1.875-.84 1.875-1.875 0 .872.599 1.6 1.406 1.809v6.16H6.008V7.968c1.036 0 1.875-.84 1.875-1.875 0 1.035.84 1.875 1.875 1.875zm-4.219-.066v6.16H2.727v-6.16a1.871 1.871 0 0 0 1.406-1.81c0 .873.599 1.6 1.406 1.81zm7.969-6.497H2.258L.383 5.156h15l-1.875-3.75zM4.344 2.448l-.938 1.875a.236.236 0 0 1-.315.105.234.234 0 0 1-.104-.314l.937-1.875a.235.235 0 0 1 .42.209zm1.875 0L5.28 4.323a.236.236 0 0 1-.315.105.234.234 0 0 1-.104-.314l.937-1.875a.236.236 0 0 1 .314-.105.235.235 0 0 1 .106.314zm1.898 1.77a.234.234 0 0 1-.469 0V2.345a.234.234 0 1 1 .47 0v1.875zm2.692.206a.233.233 0 0 1-.319-.093L9.465 2.456a.234.234 0 1 1 .412-.225l1.025 1.875c.06.114.02.256-.093.318zm1.866.004a.232.232 0 0 1-.313-.105l-.938-1.875a.234.234 0 0 1 .105-.314.236.236 0 0 1 .315.105l.937 1.875a.234.234 0 0 1-.106.314zm-8.308 6.893v-1.08a.464.464 0 0 1-.234-.397.47.47 0 0 1 .937 0 .462.462 0 0 1-.234.397v1.08a.462.462 0 0 1 .234.398.468.468 0 1 1-.937 0c0-.172.097-.315.234-.398zM2.258.47c0-.26.21-.469.469-.469h10.312a.468.468 0 1 1 0 .938H2.727a.47.47 0 0 1-.469-.47zm6.34 10.01l-.33-.332L9.593 8.82l.332.332-1.326 1.325zm0 1.325l-.33-.332 2.65-2.65.332.33L8.6 11.805zm2.32-1.657l.332.331-1.325 1.326-.332-.332 1.326-1.325z"/>
</svg>
